<svg width="26" height="31" viewBox="0 0 26 31" fill="none" xmlns="http://www.w3.org/2000/svg">
<path d="M21.4455 29.3246C19.7824 30.9368 17.9666 30.6823 16.2186 29.9186C14.3689 29.138 12.6718 29.104 10.7203 29.9186C8.27653 30.9707 6.98679 30.6653 5.52735 29.3246C-2.75414 20.7886 -1.53228 7.78936 7.86925 7.31419C10.1602 7.43298 11.7554 8.56999 13.0961 8.67181C15.0986 8.26452 17.0162 7.09357 19.1545 7.24631C21.717 7.44995 23.6516 8.46817 24.9244 10.301C19.6296 13.4744 20.8854 20.4492 25.7389 22.4008C24.7716 24.9463 23.5158 27.4749 21.4285 29.3416L21.4455 29.3246ZM12.9264 7.21237C12.6718 3.428 15.7435 0.305465 19.2733 0C19.7654 4.37833 15.3022 7.63662 12.9264 7.21237Z" fill="white" fill-opacity="0.933333"/>
</svg>
