<svg width="84" height="84" viewBox="0 0 84 84" fill="none" xmlns="http://www.w3.org/2000/svg">
<mask id="path-1-inside-1_989_2000" fill="white">
<path d="M0 16C0 7.16343 7.16344 0 16 0H67.3826C76.2191 0 83.3826 7.16344 83.3826 16V67.3825C83.3826 76.2191 76.2191 83.3825 67.3826 83.3825H16C7.16344 83.3825 0 76.2191 0 67.3825V16Z"/>
</mask>
<path d="M0 16C0 7.16343 7.16344 0 16 0H67.3826C76.2191 0 83.3826 7.16344 83.3826 16V67.3825C83.3826 76.2191 76.2191 83.3825 67.3826 83.3825H16C7.16344 83.3825 0 76.2191 0 67.3825V16Z" fill="#2B7FFF"/>
<path d="M16 0V2H67.3826V0V-2H16V0ZM83.3826 16H81.3826V67.3825H83.3826H85.3826V16H83.3826ZM67.3826 83.3825V81.3825H16V83.3825V85.3825H67.3826V83.3825ZM0 67.3825H2V16H0H-2V67.3825H0ZM16 83.3825V81.3825C8.26801 81.3825 2 75.1145 2 67.3825H0H-2C-2 77.3236 6.05887 85.3825 16 85.3825V83.3825ZM83.3826 67.3825H81.3826C81.3826 75.1145 75.1146 81.3825 67.3826 81.3825V83.3825V85.3825C77.3237 85.3825 85.3826 77.3237 85.3826 67.3825H83.3826ZM67.3826 0V2C75.1146 2 81.3826 8.26801 81.3826 16H83.3826H85.3826C85.3826 6.05887 77.3237 -2 67.3826 -2V0ZM16 0V-2C6.05888 -2 -2 6.05886 -2 16H0H2C2 8.26801 8.26801 2 16 2V0Z" fill="white" fill-opacity="0.3" mask="url(#path-1-inside-1_989_2000)"/>
<path d="M45.4413 29.6914H37.9413L34.1913 34.1914H29.6913C28.8956 34.1914 28.1326 34.5075 27.57 35.0701C27.0074 35.6327 26.6913 36.3958 26.6913 37.1914V50.6914C26.6913 51.4871 27.0074 52.2501 27.57 52.8127C28.1326 53.3753 28.8956 53.6914 29.6913 53.6914H53.6913C54.4869 53.6914 55.25 53.3753 55.8126 52.8127C56.3752 52.2501 56.6913 51.4871 56.6913 50.6914V37.1914C56.6913 36.3958 56.3752 35.6327 55.8126 35.0701C55.25 34.5075 54.4869 34.1914 53.6913 34.1914H49.1913L45.4413 29.6914Z" stroke="white" stroke-width="3.75" stroke-linecap="round" stroke-linejoin="round"/>
<path d="M41.6913 47.6914C44.1766 47.6914 46.1913 45.6767 46.1913 43.1914C46.1913 40.7061 44.1766 38.6914 41.6913 38.6914C39.206 38.6914 37.1913 40.7061 37.1913 43.1914C37.1913 45.6767 39.206 47.6914 41.6913 47.6914Z" stroke="white" stroke-width="3.75" stroke-linecap="round" stroke-linejoin="round"/>
</svg>
