<svg width="73" height="73" viewBox="0 0 73 73" fill="none" xmlns="http://www.w3.org/2000/svg">
<mask id="path-1-inside-1_1081_3714" fill="white">
<path d="M0 9.35313C0 4.18754 4.18754 0 9.35313 0H63.6469C68.8125 0 73 4.18754 73 9.35313V63.6468C73 68.8124 68.8125 73 63.6469 73H9.35313C4.18754 73 0 68.8124 0 63.6468V9.35313Z"/>
</mask>
<path d="M0 9.35313C0 4.18754 4.18754 0 9.35313 0H63.6469C68.8125 0 73 4.18754 73 9.35313V63.6468C73 68.8124 68.8125 73 63.6469 73H9.35313C4.18754 73 0 68.8124 0 63.6468V9.35313Z" fill="url(#paint0_linear_1081_3714)"/>
<path d="M9.35313 0V1.16914H63.6469V0V-1.16914H9.35313V0ZM73 9.35313H71.8309V63.6468H73H74.1691V9.35313H73ZM63.6469 73V71.8308H9.35313V73V74.1691H63.6469V73ZM0 63.6468H1.16914V9.35313H0H-1.16914V63.6468H0ZM9.35313 73V71.8308C4.83324 71.8308 1.16914 68.1667 1.16914 63.6468H0H-1.16914C-1.16914 69.4581 3.54184 74.1691 9.35313 74.1691V73ZM73 63.6468H71.8309C71.8309 68.1667 68.1668 71.8308 63.6469 71.8308V73V74.1691C69.4582 74.1691 74.1691 69.4581 74.1691 63.6468H73ZM63.6469 0V1.16914C68.1668 1.16914 71.8309 4.83324 71.8309 9.35313H73H74.1691C74.1691 3.54184 69.4582 -1.16914 63.6469 -1.16914V0ZM9.35313 0V-1.16914C3.54184 -1.16914 -1.16914 3.54184 -1.16914 9.35313H0H1.16914C1.16914 4.83324 4.83324 1.16914 9.35313 1.16914V0Z" fill="white" fill-opacity="0.3" mask="url(#path-1-inside-1_1081_3714)"/>
<path d="M39.7825 25.9941H33.2164L29.9333 29.9338H25.9936C25.2971 29.9338 24.629 30.2105 24.1365 30.7031C23.6439 31.1956 23.3672 31.8637 23.3672 32.5603V44.3793C23.3672 45.0759 23.6439 45.7439 24.1365 46.2365C24.629 46.729 25.2971 47.0057 25.9936 47.0057H47.0052C47.7018 47.0057 48.3698 46.729 48.8624 46.2365C49.355 45.7439 49.6317 45.0759 49.6317 44.3793V32.5603C49.6317 31.8637 49.355 31.1956 48.8624 30.7031C48.3698 30.2105 47.7018 29.9338 47.0052 29.9338H43.0656L39.7825 25.9941Z" stroke="white" stroke-width="3.28306" stroke-linecap="round" stroke-linejoin="round"/>
<path d="M36.4983 41.7543C38.6741 41.7543 40.4379 39.9905 40.4379 37.8147C40.4379 35.6389 38.6741 33.875 36.4983 33.875C34.3224 33.875 32.5586 35.6389 32.5586 37.8147C32.5586 39.9905 34.3224 41.7543 36.4983 41.7543Z" stroke="white" stroke-width="3.28306" stroke-linecap="round" stroke-linejoin="round"/>
<defs>
<linearGradient id="paint0_linear_1081_3714" x1="2.18871" y1="2.62645" x2="67.8499" y2="70.9141" gradientUnits="userSpaceOnUse">
<stop stop-color="#04A1A7"/>
<stop offset="1" stop-color="#005154"/>
</linearGradient>
</defs>
</svg>
