<svg width="21" height="21" viewBox="0 0 21 21" fill="none" xmlns="http://www.w3.org/2000/svg">
<g clip-path="url(#clip0_568_5771)">
<path d="M18.4208 8.44784C18.8067 10.3416 18.5317 12.3104 17.6416 14.0259C16.7516 15.7414 15.3004 17.0999 13.5299 17.8749C11.7595 18.65 9.77688 18.7946 7.91269 18.2848C6.04851 17.7749 4.41545 16.6414 3.28586 15.0733C2.15626 13.5051 1.59841 11.5971 1.70533 9.66739C1.81225 7.73771 2.57747 5.90299 3.8734 4.46922C5.16932 3.03545 6.91761 2.08928 8.82671 1.78851C10.7358 1.48774 12.6903 1.85053 14.3643 2.8164" stroke="#00A63E" stroke-width="1.68985" stroke-linecap="round" stroke-linejoin="round"/>
<path d="M7.60449 9.29144L10.1393 11.8262L18.5885 3.37695" stroke="#00A63E" stroke-width="1.68985" stroke-linecap="round" stroke-linejoin="round"/>
</g>
<defs>
<clipPath id="clip0_568_5771">
<rect width="20.2782" height="20.2782" fill="white"/>
</clipPath>
</defs>
</svg>
