<svg width="73" height="73" viewBox="0 0 73 73" fill="none" xmlns="http://www.w3.org/2000/svg">
<mask id="path-1-inside-1_1081_3737" fill="white">
<path d="M0 9.35313C0 4.18754 4.18754 0 9.35313 0L62.7562 0C67.9218 0 72.1094 4.18754 72.1094 9.35313V62.7562C72.1094 67.9218 67.9218 72.1094 62.7562 72.1094H9.35313C4.18754 72.1094 0 67.9218 0 62.7562L0 9.35313Z"/>
</mask>
<path d="M0 9.35313C0 4.18754 4.18754 0 9.35313 0L62.7562 0C67.9218 0 72.1094 4.18754 72.1094 9.35313V62.7562C72.1094 67.9218 67.9218 72.1094 62.7562 72.1094H9.35313C4.18754 72.1094 0 67.9218 0 62.7562L0 9.35313Z" fill="url(#paint0_linear_1081_3737)"/>
<path d="M9.35313 0V1.16914L62.7562 1.16914V0V-1.16914L9.35313 -1.16914V0ZM72.1094 9.35313H70.9402V62.7562H72.1094H73.2785V9.35313H72.1094ZM62.7562 72.1094V70.9402H9.35313V72.1094V73.2785H62.7562V72.1094ZM0 62.7562H1.16914L1.16914 9.35313H0H-1.16914L-1.16914 62.7562H0ZM9.35313 72.1094V70.9402C4.83324 70.9402 1.16914 67.2761 1.16914 62.7562H0H-1.16914C-1.16914 68.5675 3.54184 73.2785 9.35313 73.2785V72.1094ZM72.1094 62.7562H70.9402C70.9402 67.2761 67.2761 70.9402 62.7562 70.9402V72.1094V73.2785C68.5675 73.2785 73.2785 68.5675 73.2785 62.7562H72.1094ZM62.7562 0V1.16914C67.2761 1.16914 70.9402 4.83324 70.9402 9.35313H72.1094H73.2785C73.2785 3.54184 68.5675 -1.16914 62.7562 -1.16914V0ZM9.35313 0V-1.16914C3.54184 -1.16914 -1.16914 3.54184 -1.16914 9.35313H0H1.16914C1.16914 4.83324 4.83324 1.16914 9.35313 1.16914V0Z" fill="white" fill-opacity="0.3" mask="url(#path-1-inside-1_1081_3737)"/>
<g clip-path="url(#clip0_1081_3737)">
<path d="M28.9898 52.5931C26.7998 51.6475 24.8948 50.3647 23.2748 48.7448C21.6548 47.1248 20.3726 45.2197 19.4282 43.0298C18.4838 40.8398 18.011 38.4998 18.0098 36.0098C18.0086 33.5198 18.4814 31.1798 19.4282 28.9898C20.375 26.7998 21.6572 24.8948 23.2748 23.2748C24.8924 21.6548 26.7974 20.3726 28.9898 19.4282C31.1822 18.4838 33.5222 18.011 36.0098 18.0098C38.4974 18.0086 40.8374 18.4814 43.0298 19.4282C45.2222 20.375 47.1272 21.6572 48.7448 23.2748C50.3624 24.8924 51.6451 26.7974 52.5931 28.9898C53.5411 31.1822 54.0133 33.5222 54.0097 36.0098C54.0061 38.4974 53.5333 40.8374 52.5913 43.0298C51.6493 45.2222 50.3671 47.1272 48.7448 48.7448C47.1224 50.3624 45.2174 51.6451 43.0298 52.5931C40.8422 53.5411 38.5022 54.0133 36.0098 54.0097C33.5174 54.0061 31.1774 53.5351 28.9898 52.5931ZM46.2247 46.2247C49.0147 43.4347 50.4097 40.0298 50.4097 36.0098C50.4097 31.9898 49.0147 28.5848 46.2247 25.7948C43.4347 23.0048 40.0298 21.6098 36.0098 21.6098C31.9898 21.6098 28.5848 23.0048 25.7948 25.7948C23.0048 28.5848 21.6098 31.9898 21.6098 36.0098C21.6098 40.0298 23.0048 43.4347 25.7948 46.2247C28.5848 49.0147 31.9898 50.4097 36.0098 50.4097C40.0298 50.4097 43.4347 49.0147 46.2247 46.2247Z" fill="white"/>
<path d="M29.4648 36.4199L33.9648 40.9199L42.9648 31.9199" stroke="white" stroke-width="4" stroke-linecap="round" stroke-linejoin="round"/>
</g>
<defs>
<linearGradient id="paint0_linear_1081_3737" x1="2.16201" y1="2.59441" x2="67.0222" y2="70.0489" gradientUnits="userSpaceOnUse">
<stop stop-color="#04A1A7"/>
<stop offset="1" stop-color="#005154"/>
</linearGradient>
<clipPath id="clip0_1081_3737">
<rect width="36" height="36" fill="white" transform="translate(18.0547 18.0547)"/>
</clipPath>
</defs>
</svg>
