<svg width="80" height="80" viewBox="0 0 80 80" fill="none" xmlns="http://www.w3.org/2000/svg">
<mask id="path-1-inside-1_989_1973" fill="white">
<path d="M0 16C0 7.16345 7.16344 0 16 0H63.3755C72.212 0 79.3755 7.16344 79.3755 16V63.3755C79.3755 72.2121 72.212 79.3755 63.3755 79.3755H16C7.16344 79.3755 0 72.2121 0 63.3755V16Z"/>
</mask>
<path d="M0 16C0 7.16345 7.16344 0 16 0H63.3755C72.212 0 79.3755 7.16344 79.3755 16V63.3755C79.3755 72.2121 72.212 79.3755 63.3755 79.3755H16C7.16344 79.3755 0 72.2121 0 63.3755V16Z" fill="#00BBA7"/>
<path d="M16 0V2H63.3755V0V-2H16V0ZM79.3755 16H77.3755V63.3755H79.3755H81.3755V16H79.3755ZM63.3755 79.3755V77.3755H16V79.3755V81.3755H63.3755V79.3755ZM0 63.3755H2V16H0H-2V63.3755H0ZM16 79.3755V77.3755C8.26801 77.3755 2 71.1075 2 63.3755H0H-2C-2 73.3166 6.05887 81.3755 16 81.3755V79.3755ZM79.3755 63.3755H77.3755C77.3755 71.1075 71.1075 77.3755 63.3755 77.3755V79.3755V81.3755C73.3166 81.3755 81.3755 73.3166 81.3755 63.3755H79.3755ZM63.3755 0V2C71.1075 2 77.3755 8.26801 77.3755 16H79.3755H81.3755C81.3755 6.05887 73.3166 -2 63.3755 -2V0ZM16 0V-2C6.05887 -2 -2 6.05888 -2 16H0H2C2 8.26802 8.26801 2 16 2V0Z" fill="white" fill-opacity="0.3" mask="url(#path-1-inside-1_989_1973)"/>
<path d="M39.6877 54.6875C47.972 54.6875 54.6877 47.9718 54.6877 39.6875C54.6877 31.4032 47.972 24.6875 39.6877 24.6875C31.4035 24.6875 24.6877 31.4032 24.6877 39.6875C24.6877 47.9718 31.4035 54.6875 39.6877 54.6875Z" stroke="white" stroke-width="3.75" stroke-linecap="round" stroke-linejoin="round"/>
<path d="M39.6877 30.6875V39.6875L45.6877 42.6875" stroke="white" stroke-width="3.75" stroke-linecap="round" stroke-linejoin="round"/>
</svg>
