<svg width="890" height="229" viewBox="0 0 890 229" fill="none" xmlns="http://www.w3.org/2000/svg">
<path d="M134.656 100.145H77.6812V61.9814C77.6812 50.8842 77.0497 43.9823 75.7866 41.2756C74.6137 38.4788 71.9521 37.0803 67.802 37.0803C63.1105 37.0803 60.1332 38.7494 58.8701 42.0876C57.607 45.4258 56.9754 52.6435 56.9754 63.7407V165.51C56.9754 176.156 57.607 183.104 58.8701 186.352C60.1332 189.599 62.9751 191.223 67.396 191.223C71.6364 191.223 74.3881 189.599 75.6512 186.352C77.0045 183.104 77.6812 175.48 77.6812 163.48V136.008H134.656V144.534C134.656 167.179 133.032 183.239 129.784 192.712C126.626 202.185 119.544 210.486 108.537 217.613C97.6201 224.741 84.132 228.304 68.0726 228.304C51.3817 228.304 37.6229 225.282 26.7964 219.237C15.9698 213.192 8.79722 204.847 5.27859 194.201C1.75996 183.464 0.000646472 167.36 0.000646472 145.887V81.8752C0.000646472 66.0865 0.541974 54.2675 1.62463 46.4182C2.70729 38.4788 5.91014 30.8551 11.2332 23.5471C16.6465 16.2392 24.0897 10.5102 33.563 6.35998C43.1264 2.11957 54.0883 -0.000627086 66.4486 -0.000627086C83.2298 -0.000627086 97.0788 3.24734 107.996 9.74328C118.912 16.2392 126.085 24.3591 129.513 34.103C132.942 43.7567 134.656 58.8237 134.656 79.3039V100.145ZM284.604 4.60066V151.03C284.604 167.631 284.062 179.314 282.98 186.081C281.897 192.757 278.694 199.659 273.371 206.787C268.048 213.824 261.011 219.192 252.259 222.891C243.598 226.5 233.358 228.304 221.539 228.304C208.457 228.304 196.909 226.139 186.894 221.808C176.88 217.478 169.391 211.839 164.429 204.892C159.467 197.945 156.535 190.637 155.632 182.968C154.73 175.209 154.279 158.969 154.279 134.249V4.60066H211.254V168.894C211.254 178.457 211.75 184.592 212.743 187.299C213.825 189.915 215.945 191.223 219.103 191.223C222.712 191.223 225.013 189.78 226.005 186.893C227.088 183.916 227.629 176.968 227.629 166.052V4.60066H284.604ZM306.663 4.60066H346.992C373.878 4.60066 392.057 5.63821 401.531 7.7133C411.094 9.78839 418.853 15.1114 424.808 23.6825C430.853 32.1633 433.875 45.7416 433.875 64.4174C433.875 81.4692 431.755 92.9273 427.514 98.7917C423.274 104.656 414.928 108.175 402.478 109.348C413.756 112.144 421.334 115.889 425.214 120.58C429.093 125.272 431.484 129.602 432.386 133.572C433.379 137.452 433.875 148.233 433.875 165.916V223.703H380.96V150.895C380.96 139.166 380.013 131.903 378.118 129.106C376.314 126.309 371.487 124.911 363.638 124.911V223.703H306.663V4.60066ZM363.638 42.0876V90.8071C370.043 90.8071 374.509 89.95 377.036 88.2358C379.652 86.4314 380.96 80.7023 380.96 71.0487V59.0041C380.96 52.0571 379.697 47.5009 377.171 45.3356C374.735 43.1703 370.224 42.0876 363.638 42.0876ZM456.069 4.60066H551.072V48.4482H513.044V89.9951H548.636V131.677H513.044V179.856H554.862V223.703H456.069V4.60066ZM628.347 4.60066V223.703H571.372V4.60066H628.347ZM651.218 4.60066H747.71V48.4482H708.193V89.9951H743.379V131.677H708.193V223.703H651.218V4.60066ZM889.267 4.60066L847.72 144.399V223.703H794.941V144.399L754.882 4.60066H807.256C815.466 47.2753 820.067 76.0108 821.06 90.8071C824.217 67.4398 829.495 38.7043 836.894 4.60066H889.267Z" fill="white" fill-opacity="0.84"/>
</svg>
