<svg width="16" height="16" viewBox="0 0 16 16" fill="none" xmlns="http://www.w3.org/2000/svg">
<path d="M10.6666 13.334V2.66732C10.6666 2.3137 10.5261 1.97456 10.2761 1.72451C10.026 1.47446 9.68687 1.33398 9.33325 1.33398H6.66659C6.31296 1.33398 5.97383 1.47446 5.72378 1.72451C5.47373 1.97456 5.33325 2.3137 5.33325 2.66732V13.334" stroke="#36404D" stroke-opacity="0.65" stroke-width="1.33333" stroke-linecap="round" stroke-linejoin="round"/>
<path d="M13.3333 4H2.66659C1.93021 4 1.33325 4.59695 1.33325 5.33333V12C1.33325 12.7364 1.93021 13.3333 2.66659 13.3333H13.3333C14.0696 13.3333 14.6666 12.7364 14.6666 12V5.33333C14.6666 4.59695 14.0696 4 13.3333 4Z" stroke="#36404D" stroke-opacity="0.65" stroke-width="1.33333" stroke-linecap="round" stroke-linejoin="round"/>
</svg>
