<svg width="59" height="59" viewBox="0 0 59 59" fill="none" xmlns="http://www.w3.org/2000/svg">
<mask id="path-1-inside-1_909_3327" fill="white">
<path d="M1.12246 17.16C0.502544 10.4086 5.47305 4.433 12.2244 3.81308L41.5239 1.12276C48.2752 0.502845 54.2508 5.47336 54.8708 12.2247L57.5611 41.5242C58.181 48.2755 53.2105 54.2511 46.4591 54.871L17.1597 57.5614C10.4083 58.1813 4.4327 53.2108 3.81278 46.4594L1.12246 17.16Z"/>
</mask>
<path d="M1.12246 17.16C0.502544 10.4086 5.47305 4.433 12.2244 3.81308L41.5239 1.12276C48.2752 0.502845 54.2508 5.47336 54.8708 12.2247L57.5611 41.5242C58.181 48.2755 53.2105 54.2511 46.4591 54.871L17.1597 57.5614C10.4083 58.1813 4.4327 53.2108 3.81278 46.4594L1.12246 17.16Z" fill="#2B7FFF"/>
<path d="M12.2244 3.81308L12.3647 5.34113L41.6642 2.65081L41.5239 1.12276L41.3836 -0.405287L12.0841 2.28503L12.2244 3.81308ZM54.8708 12.2247L53.3427 12.365L56.033 41.6645L57.5611 41.5242L59.0891 41.3838L56.3988 12.0844L54.8708 12.2247ZM46.4591 54.871L46.3188 53.343L17.0194 56.0333L17.1597 57.5614L17.3 59.0894L46.5994 56.3991L46.4591 54.871ZM3.81278 46.4594L5.34083 46.3191L2.65051 17.0196L1.12246 17.16L-0.405588 17.3003L2.28473 46.5997L3.81278 46.4594ZM17.1597 57.5614L17.0194 56.0333C11.1119 56.5757 5.88326 52.2265 5.34083 46.3191L3.81278 46.4594L2.28473 46.5997C2.98214 54.195 9.7047 59.7868 17.3 59.0894L17.1597 57.5614ZM57.5611 41.5242L56.033 41.6645C56.5754 47.5719 52.2263 52.8005 46.3188 53.343L46.4591 54.871L46.5994 56.3991C54.1947 55.7017 59.7865 48.9791 59.0891 41.3838L57.5611 41.5242ZM41.5239 1.12276L41.6642 2.65081C47.5716 2.10839 52.8003 6.45758 53.3427 12.365L54.8708 12.2247L56.3988 12.0844C55.7014 4.48913 48.9788 -1.1027 41.3836 -0.405287L41.5239 1.12276ZM12.2244 3.81308L12.0841 2.28503C4.48883 2.98244 -1.103 9.70499 -0.405588 17.3003L1.12246 17.16L2.65051 17.0196C2.10808 11.1122 6.45728 5.88356 12.3647 5.34113L12.2244 3.81308Z" fill="white" fill-opacity="0.3" mask="url(#path-1-inside-1_909_3327)"/>
<g clip-path="url(#clip0_909_3327)">
<path d="M31.3665 19.9112L25.6363 20.4373L23.0869 24.1385L19.6488 24.4542C19.0409 24.51 18.4801 24.8051 18.0897 25.2744C17.6993 25.7437 17.5114 26.3489 17.5672 26.9568L18.5142 37.2711C18.5701 37.879 18.8651 38.4398 19.3344 38.8302C19.8037 39.2206 20.4089 39.4085 21.0168 39.3527L39.3534 37.669C39.9613 37.6132 40.5221 37.3182 40.9125 36.8489C41.3029 36.3795 41.4908 35.7744 41.435 35.1665L40.4879 24.8521C40.4321 24.2442 40.1371 23.6834 39.6678 23.293C39.1985 22.9027 38.5933 22.7147 37.9854 22.7705L34.5473 23.0862L31.3665 19.9112Z" stroke="white" stroke-width="2.87715" stroke-linecap="round" stroke-linejoin="round"/>
<path d="M29.7629 33.9258C31.6617 33.7514 33.0596 32.0708 32.8853 30.172C32.7109 28.2731 31.0303 26.8752 29.1315 27.0495C27.2327 27.2239 25.8347 28.9045 26.0091 30.8033C26.1834 32.7022 27.864 34.1001 29.7629 33.9258Z" stroke="white" stroke-width="2.87715" stroke-linecap="round" stroke-linejoin="round"/>
</g>
<defs>
<clipPath id="clip0_909_3327">
<rect width="27.6206" height="27.6206" fill="white" transform="translate(14.3262 16.8516) rotate(-5.24627)"/>
</clipPath>
</defs>
</svg>
