<svg width="56" height="56" viewBox="0 0 56 56" fill="none" xmlns="http://www.w3.org/2000/svg">
<mask id="path-1-inside-1_909_3318" fill="white">
<path d="M0.349038 17.1739C0.15627 8.33948 7.16174 1.02146 15.9962 0.828696L37.9653 0.349328C46.7998 0.156559 54.1178 7.16203 54.3106 15.9965L54.79 37.9656C54.9827 46.8001 47.9773 54.1181 39.1428 54.3109L17.1736 54.7902C8.33919 54.983 1.02117 47.9775 0.828406 39.1431L0.349038 17.1739Z"/>
</mask>
<path d="M0.349038 17.1739C0.15627 8.33948 7.16174 1.02146 15.9962 0.828696L37.9653 0.349328C46.7998 0.156559 54.1178 7.16203 54.3106 15.9965L54.79 37.9656C54.9827 46.8001 47.9773 54.1181 39.1428 54.3109L17.1736 54.7902C8.33919 54.983 1.02117 47.9775 0.828406 39.1431L0.349038 17.1739Z" fill="#FE9A00"/>
<path d="M15.9962 0.828696L16.0398 2.82822L38.009 2.34885L37.9653 0.349328L37.9217 -1.6502L15.9526 -1.17083L15.9962 0.828696ZM54.3106 15.9965L52.3111 16.0401L52.7904 38.0093L54.79 37.9656L56.7895 37.922L56.3101 15.9529L54.3106 15.9965ZM39.1428 54.3109L39.0992 52.3113L17.13 52.7907L17.1736 54.7902L17.2173 56.7897L39.1864 56.3104L39.1428 54.3109ZM0.828406 39.1431L2.82793 39.0994L2.34856 17.1303L0.349038 17.1739L-1.65049 17.2176L-1.17112 39.1867L0.828406 39.1431ZM17.1736 54.7902L17.13 52.7907C9.39987 52.9594 2.9966 46.8296 2.82793 39.0994L0.828406 39.1431L-1.17112 39.1867C-0.954253 49.1255 7.27852 57.0066 17.2173 56.7897L17.1736 54.7902ZM54.79 37.9656L52.7904 38.0093C52.9591 45.7394 46.8293 52.1427 39.0992 52.3113L39.1428 54.3109L39.1864 56.3104C49.1252 56.0935 57.0063 47.8607 56.7895 37.922L54.79 37.9656ZM37.9653 0.349328L38.009 2.34885C45.7391 2.18018 52.1424 8.30997 52.3111 16.0401L54.3106 15.9965L56.3101 15.9529C56.0932 6.01409 47.8605 -1.86706 37.9217 -1.6502L37.9653 0.349328ZM15.9962 0.828696L15.9526 -1.17083C6.0138 -0.953963 -1.86735 7.2788 -1.65049 17.2176L0.349038 17.1739L2.34856 17.1303C2.17989 9.40015 8.30968 2.99689 16.0398 2.82822L15.9962 0.828696Z" fill="white" fill-opacity="0.3" mask="url(#path-1-inside-1_909_3318)"/>
<path d="M21.9655 38.194L21.9146 35.8612L26.5801 35.7594L26.5012 32.1436C25.544 31.9505 24.6849 31.5659 23.9239 30.9897C23.163 30.4135 22.5974 29.6817 22.2271 28.7944C20.7653 28.6512 19.5318 28.0414 18.5265 26.9648C17.5212 25.8883 17.0021 24.6109 16.9691 23.1327L16.9436 21.9663C16.9296 21.3248 17.1462 20.7709 17.5935 20.3044C18.0408 19.838 18.5848 19.5974 19.2255 19.5827L21.5583 19.5318L21.5074 17.199L33.1712 16.9445L33.2221 19.2772L35.5549 19.2263C36.1964 19.2123 36.7508 19.429 37.218 19.8762C37.6852 20.3235 37.9254 20.8675 37.9386 21.5082L37.964 22.6746C37.9963 24.152 37.5333 25.4508 36.5752 26.571C35.6171 27.6912 34.4113 28.3542 32.9579 28.5602C32.6275 29.4621 32.0948 30.2178 31.3597 30.8275C30.6246 31.4371 29.7827 31.8588 28.834 32.0927L28.9129 35.7085L33.5785 35.6067L33.6294 37.9395L21.9655 38.194ZM21.7059 26.2968L21.6092 21.8645L19.2764 21.9154L19.3018 23.0818C19.3179 23.8205 19.5463 24.4819 19.9869 25.0658C20.4276 25.6498 21.0005 26.0601 21.7059 26.2968ZM30.0756 28.8273C30.7411 28.1321 31.0633 27.2985 31.0421 26.3265L30.8894 19.3282L23.891 19.4809L24.0437 26.4792C24.0649 27.4512 24.4232 28.2699 25.1184 28.9355C25.8136 29.601 26.6473 29.9232 27.6193 29.902C28.5912 29.8808 29.41 29.5226 30.0756 28.8273ZM33.3698 26.0423C34.0641 25.7743 34.6186 25.339 35.0333 24.7364C35.4481 24.1337 35.6474 23.4634 35.6313 22.7255L35.6058 21.5591L33.273 21.61L33.3698 26.0423Z" fill="white"/>
</svg>
