<svg width="55" height="55" viewBox="0 0 55 55" fill="none" xmlns="http://www.w3.org/2000/svg">
<mask id="path-1-inside-1_909_3339" fill="white">
<path d="M0.0501442 14.7393C0.0224503 6.70173 6.51576 0.16352 14.5533 0.135826L39.4207 0.0501442C47.4583 0.0224504 53.9965 6.51576 54.0242 14.5534L54.1099 39.4207C54.1376 47.4583 47.6443 53.9965 39.6067 54.0242L14.7393 54.1099C6.70174 54.1376 0.16352 47.6443 0.135826 39.6067L0.0501442 14.7393Z"/>
</mask>
<path d="M0.0501442 14.7393C0.0224503 6.70173 6.51576 0.16352 14.5533 0.135826L39.4207 0.0501442C47.4583 0.0224504 53.9965 6.51576 54.0242 14.5534L54.1099 39.4207C54.1376 47.4583 47.6443 53.9965 39.6067 54.0242L14.7393 54.1099C6.70174 54.1376 0.16352 47.6443 0.135826 39.6067L0.0501442 14.7393Z" fill="#00BC7D"/>
<path d="M14.5533 0.135826L14.5596 1.95499L39.427 1.86931L39.4207 0.0501442L39.4144 -1.76902L14.5471 -1.68334L14.5533 0.135826ZM54.0242 14.5534L52.205 14.5596L52.2907 39.427L54.1099 39.4207L55.9291 39.4144L55.8434 14.5471L54.0242 14.5534ZM39.6067 54.0242L39.6004 52.205L14.7331 52.2907L14.7393 54.1099L14.7456 55.929L39.613 55.8434L39.6067 54.0242ZM0.135826 39.6067L1.95499 39.6004L1.86931 14.7331L0.0501442 14.7393L-1.76902 14.7456L-1.68334 39.6129L0.135826 39.6067ZM14.7393 54.1099L14.7331 52.2907C7.70017 52.3149 1.97923 46.6333 1.95499 39.6004L0.135826 39.6067L-1.68334 39.6129C-1.65219 48.6552 5.70331 55.9602 14.7456 55.929L14.7393 54.1099ZM54.1099 39.4207L52.2907 39.427C52.315 46.4599 46.6333 52.1808 39.6004 52.205L39.6067 54.0242L39.613 55.8434C48.6553 55.8122 55.9602 48.4567 55.9291 39.4144L54.1099 39.4207ZM39.4207 0.0501442L39.427 1.86931C46.4599 1.84508 52.1808 7.52673 52.205 14.5596L54.0242 14.5534L55.8434 14.5471C55.8122 5.50479 48.4567 -1.80018 39.4144 -1.76902L39.4207 0.0501442ZM14.5533 0.135826L14.5471 -1.68334C5.50479 -1.65219 -1.80018 5.7033 -1.76902 14.7456L0.0501442 14.7393L1.86931 14.7331C1.84508 7.70016 7.52672 1.97923 14.5596 1.95499L14.5533 0.135826Z" fill="white" fill-opacity="0.3" mask="url(#path-1-inside-1_909_3339)"/>
<path d="M27.1665 22.4128C32.9645 22.5194 37.6935 21.039 37.729 19.1063C37.7645 17.1736 33.0931 15.5205 27.2951 15.414C21.4971 15.3075 16.7681 16.7879 16.7326 18.7205C16.6971 20.6532 21.3685 22.3063 27.1665 22.4128Z" stroke="white" stroke-width="2.33333" stroke-linecap="round" stroke-linejoin="round"/>
<path d="M16.7324 18.7211L16.4324 35.0517C16.4153 35.9798 17.505 36.8902 19.4618 37.5827C21.4185 38.2751 24.082 38.6928 26.8663 38.744C29.6506 38.7952 32.3277 38.4755 34.3085 37.8554C36.2894 37.2353 37.4118 36.3656 37.4288 35.4375L37.7289 19.1069" stroke="white" stroke-width="2.33333" stroke-linecap="round" stroke-linejoin="round"/>
<path d="M16.582 26.8871C16.565 27.8152 17.6547 28.7257 19.6114 29.4181C21.5682 30.1105 24.2317 30.5283 27.016 30.5794C29.8003 30.6306 32.4773 30.311 34.4582 29.6909C36.439 29.0708 37.5614 28.201 37.5785 27.2729" stroke="white" stroke-width="2.33333" stroke-linecap="round" stroke-linejoin="round"/>
</svg>
