<svg width="56" height="56" viewBox="0 0 56 56" fill="none" xmlns="http://www.w3.org/2000/svg">
<mask id="path-1-inside-1_909_3350" fill="white">
<path d="M1.56302 13.2561C1.84427 5.93494 8.0072 0.227997 15.3283 0.509246L42.7508 1.56271C50.0719 1.84396 55.7789 8.0069 55.4976 15.328L54.4442 42.7505C54.1629 50.0716 48 55.7785 40.6789 55.4973L13.2564 54.4438C5.93525 54.1626 0.228305 47.9996 0.509554 40.6785L1.56302 13.2561Z"/>
</mask>
<path d="M1.56302 13.2561C1.84427 5.93494 8.0072 0.227997 15.3283 0.509246L42.7508 1.56271C50.0719 1.84396 55.7789 8.0069 55.4976 15.328L54.4442 42.7505C54.1629 50.0716 48 55.7785 40.6789 55.4973L13.2564 54.4438C5.93525 54.1626 0.228305 47.9996 0.509554 40.6785L1.56302 13.2561Z" fill="#4F39F6"/>
<path d="M15.3283 0.509246L15.2647 2.16625L42.6872 3.21972L42.7508 1.56271L42.8145 -0.0942938L15.392 -1.14776L15.3283 0.509246ZM55.4976 15.328L53.8406 15.2644L52.7872 42.6868L54.4442 42.7505L56.1012 42.8142L57.1546 15.3917L55.4976 15.328ZM40.6789 55.4973L40.7425 53.8403L13.32 52.7868L13.2564 54.4438L13.1927 56.1008L40.6152 57.1543L40.6789 55.4973ZM0.509554 40.6785L2.16656 40.7422L3.22003 13.3197L1.56302 13.2561L-0.0939866 13.1924L-1.14745 40.6149L0.509554 40.6785ZM13.2564 54.4438L13.32 52.7868C6.91405 52.5407 1.92047 47.1482 2.16656 40.7422L0.509554 40.6785L-1.14745 40.6149C-1.46386 48.8511 4.95646 55.7844 13.1927 56.1008L13.2564 54.4438ZM54.4442 42.7505L52.7872 42.6868C52.5411 49.0928 47.1485 54.0864 40.7425 53.8403L40.6789 55.4973L40.6152 57.1543C48.8515 57.4707 55.7848 51.0504 56.1012 42.8142L54.4442 42.7505ZM42.7508 1.56271L42.6872 3.21972C49.0931 3.46581 54.0867 8.85838 53.8406 15.2644L55.4976 15.328L57.1546 15.3917C57.471 7.15541 51.0507 0.222111 42.8145 -0.0942938L42.7508 1.56271ZM15.3283 0.509246L15.392 -1.14776C7.15572 -1.46416 0.222418 4.95614 -0.0939866 13.1924L1.56302 13.2561L3.22003 13.3197C3.46612 6.91373 8.85869 1.92016 15.2647 2.16625L15.3283 0.509246Z" fill="white" fill-opacity="0.3" mask="url(#path-1-inside-1_909_3350)"/>
<path d="M17.5039 17.5039L17.5039 36.1706C17.5039 36.7894 17.7497 37.3829 18.1873 37.8205C18.6249 38.2581 19.2184 38.5039 19.8372 38.5039L38.5039 38.5039" stroke="white" stroke-width="2.33333" stroke-linecap="round" stroke-linejoin="round"/>
<path d="M36.1699 24.5039L30.3366 30.3372L25.6699 25.6706L22.1699 29.1706" stroke="white" stroke-width="2.33333" stroke-linecap="round" stroke-linejoin="round"/>
</svg>
