<svg width="73" height="73" viewBox="0 0 73 73" fill="none" xmlns="http://www.w3.org/2000/svg">
<mask id="path-1-inside-1_1081_3729" fill="white">
<path d="M0 9.35313C0 4.18754 4.18754 0 9.35313 0L62.7562 0C67.9218 0 72.1094 4.18754 72.1094 9.35313V62.7562C72.1094 67.9218 67.9218 72.1094 62.7562 72.1094H9.35313C4.18754 72.1094 0 67.9218 0 62.7562L0 9.35313Z"/>
</mask>
<path d="M0 9.35313C0 4.18754 4.18754 0 9.35313 0L62.7562 0C67.9218 0 72.1094 4.18754 72.1094 9.35313V62.7562C72.1094 67.9218 67.9218 72.1094 62.7562 72.1094H9.35313C4.18754 72.1094 0 67.9218 0 62.7562L0 9.35313Z" fill="url(#paint0_linear_1081_3729)"/>
<path d="M9.35313 0V1.16914L62.7562 1.16914V0V-1.16914L9.35313 -1.16914V0ZM72.1094 9.35313H70.9402V62.7562H72.1094H73.2785V9.35313H72.1094ZM62.7562 72.1094V70.9402H9.35313V72.1094V73.2785H62.7562V72.1094ZM0 62.7562H1.16914L1.16914 9.35313H0H-1.16914L-1.16914 62.7562H0ZM9.35313 72.1094V70.9402C4.83324 70.9402 1.16914 67.2761 1.16914 62.7562H0H-1.16914C-1.16914 68.5675 3.54184 73.2785 9.35313 73.2785V72.1094ZM72.1094 62.7562H70.9402C70.9402 67.2761 67.2761 70.9402 62.7562 70.9402V72.1094V73.2785C68.5675 73.2785 73.2785 68.5675 73.2785 62.7562H72.1094ZM62.7562 0V1.16914C67.2761 1.16914 70.9402 4.83324 70.9402 9.35313H72.1094H73.2785C73.2785 3.54184 68.5675 -1.16914 62.7562 -1.16914V0ZM9.35313 0V-1.16914C3.54184 -1.16914 -1.16914 3.54184 -1.16914 9.35313H0H1.16914C1.16914 4.83324 4.83324 1.16914 9.35313 1.16914V0Z" fill="white" fill-opacity="0.3" mask="url(#path-1-inside-1_1081_3729)"/>
<path d="M25.2619 38.7532C25.0066 38.754 24.7563 38.6825 24.5401 38.5467C24.3238 38.411 24.1506 38.2167 24.0404 37.9864C23.9302 37.7561 23.8876 37.4993 23.9175 37.2458C23.9475 36.9922 24.0488 36.7524 24.2096 36.5542L37.5656 22.7934C37.6658 22.6778 37.8023 22.5996 37.9528 22.5718C38.1032 22.544 38.2587 22.5681 38.3936 22.6403C38.5285 22.7125 38.6349 22.8283 38.6953 22.9689C38.7556 23.1095 38.7664 23.2665 38.7258 23.414L36.1356 31.5355C36.0592 31.7399 36.0336 31.9598 36.0608 32.1764C36.0881 32.3929 36.1675 32.5995 36.2922 32.7786C36.4169 32.9577 36.5832 33.1039 36.7768 33.2046C36.9704 33.3053 37.1855 33.3575 37.4037 33.3568H46.8474C47.1027 33.3559 47.353 33.4275 47.5692 33.5632C47.7854 33.699 47.9587 33.8933 48.0689 34.1236C48.1791 34.3538 48.2217 34.6107 48.1918 34.8642C48.1618 35.1177 48.0605 35.3576 47.8997 35.5558L34.5437 49.3166C34.4435 49.4322 34.3069 49.5104 34.1565 49.5382C34.006 49.566 33.8506 49.5419 33.7157 49.4697C33.5808 49.3975 33.4744 49.2816 33.414 49.141C33.3536 49.0005 33.3429 48.8435 33.3834 48.696L35.9737 40.5745C36.0501 40.37 36.0757 40.1501 36.0484 39.9336C36.0212 39.7171 35.9418 39.5104 35.8171 39.3314C35.6924 39.1523 35.5261 39.0061 35.3325 38.9054C35.1389 38.8047 34.9238 38.7525 34.7055 38.7532H25.2619Z" stroke="white" stroke-width="3.37273" stroke-linecap="round" stroke-linejoin="round"/>
<defs>
<linearGradient id="paint0_linear_1081_3729" x1="2.16201" y1="2.59441" x2="67.0222" y2="70.0489" gradientUnits="userSpaceOnUse">
<stop stop-color="#04A1A7"/>
<stop offset="1" stop-color="#005154"/>
</linearGradient>
</defs>
</svg>
