<svg width="54" height="54" viewBox="0 0 54 54" fill="none" xmlns="http://www.w3.org/2000/svg">
<mask id="path-1-inside-1_1071_4987" fill="white">
<path d="M0 10.885C0 4.87337 4.87337 0 10.885 0H43.115C49.1266 0 54 4.87337 54 10.885V43.115C54 49.1266 49.1266 54 43.115 54H10.885C4.87336 54 0 49.1266 0 43.115V10.885Z"/>
</mask>
<path d="M0 10.885C0 4.87337 4.87337 0 10.885 0H43.115C49.1266 0 54 4.87337 54 10.885V43.115C54 49.1266 49.1266 54 43.115 54H10.885C4.87336 54 0 49.1266 0 43.115V10.885Z" fill="#00BBA7"/>
<path d="M10.885 0V1.36062H43.115V0V-1.36062H10.885V0ZM54 10.885H52.6394V43.115H54H55.3606V10.885H54ZM43.115 54V52.6394H10.885V54V55.3606H43.115V54ZM0 43.115H1.36062V10.885H0H-1.36062V43.115H0ZM10.885 54V52.6394C5.62481 52.6394 1.36062 48.3752 1.36062 43.115H0H-1.36062C-1.36062 49.8781 4.12191 55.3606 10.885 55.3606V54ZM54 43.115H52.6394C52.6394 48.3752 48.3752 52.6394 43.115 52.6394V54V55.3606C49.8781 55.3606 55.3606 49.8781 55.3606 43.115H54ZM43.115 0V1.36062C48.3752 1.36062 52.6394 5.62482 52.6394 10.885H54H55.3606C55.3606 4.12192 49.8781 -1.36062 43.115 -1.36062V0ZM10.885 0V-1.36062C4.12192 -1.36062 -1.36062 4.12192 -1.36062 10.885H0H1.36062C1.36062 5.62482 5.62482 1.36062 10.885 1.36062V0Z" fill="white" fill-opacity="0.3" mask="url(#path-1-inside-1_1071_4987)"/>
<path d="M26.9996 37.2042C32.6355 37.2042 37.2042 32.6355 37.2042 26.9996C37.2042 21.3637 32.6355 16.7949 26.9996 16.7949C21.3637 16.7949 16.7949 21.3637 16.7949 26.9996C16.7949 32.6355 21.3637 37.2042 26.9996 37.2042Z" stroke="white" stroke-width="2.55116" stroke-linecap="round" stroke-linejoin="round"/>
<path d="M27 20.877V26.9997L31.0819 29.0407" stroke="white" stroke-width="2.55116" stroke-linecap="round" stroke-linejoin="round"/>
</svg>
