<svg width="47" height="59" viewBox="0 0 47 59" fill="none" xmlns="http://www.w3.org/2000/svg">
<g clip-path="url(#clip0_891_3349)">
<path d="M12.5981 19.0758L3.50195 33.7598L5.98803 35.2586L15.0842 20.5746L12.5981 19.0758Z" fill="white"/>
<path d="M35.5141 32.8961L26.418 47.5801L28.904 49.0789L38.0002 34.3949L35.5141 32.8961Z" fill="white"/>
<path d="M25.0096 49.8368C21.5321 55.2888 14.2294 56.9949 8.63725 53.6291C3.04509 50.2633 1.25936 43.0682 4.58646 37.5236L2.09583 36.0215C-2.06775 42.9199 0.159721 51.886 7.11468 56.0769C14.0696 60.2679 23.1769 58.1353 27.4908 51.3296L25.0002 49.8276L25.0096 49.8368Z" fill="white"/>
<path d="M32.5554 37.6532L42.9784 20.8337C46.4183 15.2797 44.642 8.00117 39.0028 4.59833C33.373 1.20476 25.9951 2.95718 22.5459 8.52041L12.1322 25.3399L9.6416 23.8378L20.0646 7.01833C24.341 0.11066 33.514 -2.06827 40.516 2.15051C47.5179 6.36929 49.736 15.4281 45.4502 22.3358L35.0272 39.1552L32.5366 37.6532H32.5554Z" fill="white"/>
<path d="M42.3874 21.7804L42.3686 21.8175C38.9287 27.3714 31.5508 29.1331 25.9117 25.7395C22.594 23.7461 20.6203 20.3988 20.2537 16.8477L18.0732 20.371C19.1541 23.5143 21.3064 26.3237 24.3985 28.1874C31.4004 32.4061 40.5735 30.2272 44.8592 23.3195L44.878 23.2825L42.3874 21.7804Z" fill="white"/>
<path d="M21.8709 6.03958L20.3516 8.49219L40.3044 20.5216L41.8236 18.069L21.8709 6.03958Z" fill="white"/>
</g>
<defs>
<clipPath id="clip0_891_3349">
<rect width="47" height="58.2284" fill="white"/>
</clipPath>
</defs>
</svg>
