<svg width="39" height="39" viewBox="0 0 39 39" fill="none" xmlns="http://www.w3.org/2000/svg">
<path d="M32.0856 12.834H6.41714C5.53113 12.834 4.81287 13.5522 4.81287 14.4383V17.6468C4.81287 18.5328 5.53113 19.2511 6.41714 19.2511H32.0856C32.9716 19.2511 33.6899 18.5328 33.6899 17.6468V14.4383C33.6899 13.5522 32.9716 12.834 32.0856 12.834Z" stroke="white" stroke-width="4.01069" stroke-linecap="round" stroke-linejoin="round"/>
<path d="M19.2513 12.834V33.6896" stroke="white" stroke-width="4.01069" stroke-linecap="round" stroke-linejoin="round"/>
<path d="M30.4813 19.252V30.4819C30.4813 31.3329 30.1432 32.149 29.5415 32.7507C28.9398 33.3524 28.1237 33.6905 27.2727 33.6905H11.2299C10.379 33.6905 9.56285 33.3524 8.96113 32.7507C8.35941 32.149 8.02136 31.3329 8.02136 30.4819V19.252" stroke="white" stroke-width="4.01069" stroke-linecap="round" stroke-linejoin="round"/>
<path d="M12.0321 12.8346C10.9684 12.8346 9.94822 12.412 9.19607 11.6599C8.44392 10.9077 8.02136 9.8876 8.02136 8.8239C8.02136 7.76019 8.44392 6.74006 9.19607 5.98791C9.94822 5.23576 10.9684 4.8132 12.0321 4.8132C13.5797 4.78624 15.0963 5.53715 16.384 6.968C17.6718 8.39886 18.671 10.4433 19.2513 12.8346C19.8316 10.4433 20.8308 8.39886 22.1186 6.968C23.4063 5.53715 24.9229 4.78624 26.4706 4.8132C27.5343 4.8132 28.5544 5.23576 29.3065 5.98791C30.0587 6.74006 30.4813 7.76019 30.4813 8.8239C30.4813 9.8876 30.0587 10.9077 29.3065 11.6599C28.5544 12.412 27.5343 12.8346 26.4706 12.8346" stroke="white" stroke-width="4.01069" stroke-linecap="round" stroke-linejoin="round"/>
</svg>
