<svg width="53" height="53" viewBox="0 0 53 53" fill="none" xmlns="http://www.w3.org/2000/svg">
<mask id="path-1-inside-1_1081_3669" fill="white">
<path d="M0 10.6834C0 4.78312 4.78312 0 10.6834 0H42.3166C48.2169 0 53 4.78312 53 10.6834V42.3166C53 48.2169 48.2169 53 42.3166 53H10.6834C4.78312 53 0 48.2169 0 42.3166V10.6834Z"/>
</mask>
<path d="M0 10.6834C0 4.78312 4.78312 0 10.6834 0H42.3166C48.2169 0 53 4.78312 53 10.6834V42.3166C53 48.2169 48.2169 53 42.3166 53H10.6834C4.78312 53 0 48.2169 0 42.3166V10.6834Z" fill="#00BBA7"/>
<path d="M10.6834 0V1.33542H42.3166V0V-1.33542H10.6834V0ZM53 10.6834H51.6646V42.3166H53H54.3354V10.6834H53ZM42.3166 53V51.6646H10.6834V53V54.3354H42.3166V53ZM0 42.3166H1.33542V10.6834H0H-1.33542V42.3166H0ZM10.6834 53V51.6646C5.52066 51.6646 1.33542 47.4794 1.33542 42.3166H0H-1.33542C-1.33542 48.9544 4.04558 54.3354 10.6834 54.3354V53ZM53 42.3166H51.6646C51.6646 47.4794 47.4793 51.6646 42.3166 51.6646V53V54.3354C48.9544 54.3354 54.3354 48.9544 54.3354 42.3166H53ZM42.3166 0V1.33542C47.4793 1.33542 51.6646 5.52066 51.6646 10.6834H53H54.3354C54.3354 4.04559 48.9544 -1.33542 42.3166 -1.33542V0ZM10.6834 0V-1.33542C4.04559 -1.33542 -1.33542 4.04559 -1.33542 10.6834H0H1.33542C1.33542 5.52066 5.52066 1.33542 10.6834 1.33542V0Z" fill="white" fill-opacity="0.66" mask="url(#path-1-inside-1_1081_3669)"/>
<path d="M26.5001 36.5157C32.0316 36.5157 36.5157 32.0316 36.5157 26.5001C36.5157 20.9686 32.0316 16.4844 26.5001 16.4844C20.9686 16.4844 16.4844 20.9686 16.4844 26.5001C16.4844 32.0316 20.9686 36.5157 26.5001 36.5157Z" stroke="white" stroke-width="2.50392" stroke-linecap="round" stroke-linejoin="round"/>
<path d="M26.5 20.4902V26.4996L30.5063 28.5028" stroke="white" stroke-width="2.50392" stroke-linecap="round" stroke-linejoin="round"/>
</svg>
