<svg width="37" height="37" viewBox="0 0 37 37" fill="none" xmlns="http://www.w3.org/2000/svg">
<path d="M33.6587 18.3579H29.8645C29.1958 18.3565 28.5451 18.5741 28.0119 18.9775C27.4787 19.3809 27.0922 19.9478 26.9117 20.5916L23.3164 33.3818C23.2932 33.4613 23.2449 33.5311 23.1787 33.5807C23.1125 33.6304 23.0319 33.6572 22.9492 33.6572C22.8664 33.6572 22.7859 33.6304 22.7197 33.5807C22.6535 33.5311 22.6052 33.4613 22.582 33.3818L14.1368 3.33398C14.1136 3.25453 14.0653 3.18474 13.9991 3.13509C13.9329 3.08544 13.8523 3.05859 13.7696 3.05859C13.6868 3.05859 13.6063 3.08544 13.5401 3.13509C13.4739 3.18474 13.4256 3.25453 13.4024 3.33398L9.80706 16.1242C9.62724 16.7655 9.24309 17.3306 8.71295 17.7337C8.1828 18.1368 7.5356 18.356 6.86959 18.3579H3.06006" stroke="white" stroke-width="3.82483" stroke-linecap="round" stroke-linejoin="round"/>
</svg>
