<svg width="54" height="54" viewBox="0 0 54 54" fill="none" xmlns="http://www.w3.org/2000/svg">
<mask id="path-1-inside-1_1071_4960" fill="white">
<path d="M0 11.8833C0 5.32035 5.32035 0 11.8833 0L42.1167 0C48.6797 0 54 5.32035 54 11.8833V42.1167C54 48.6797 48.6797 54 42.1167 54H11.8833C5.32035 54 0 48.6797 0 42.1167L0 11.8833Z"/>
</mask>
<path d="M0 11.8833C0 5.32035 5.32035 0 11.8833 0L42.1167 0C48.6797 0 54 5.32035 54 11.8833V42.1167C54 48.6797 48.6797 54 42.1167 54H11.8833C5.32035 54 0 48.6797 0 42.1167L0 11.8833Z" fill="#FE9A00"/>
<path d="M11.8833 0V1.48542L42.1167 1.48542V0V-1.48542L11.8833 -1.48542V0ZM54 11.8833H52.5146V42.1167H54H55.4854V11.8833H54ZM42.1167 54V52.5146H11.8833V54V55.4854H42.1167V54ZM0 42.1167H1.48542L1.48542 11.8833H0H-1.48542L-1.48542 42.1167H0ZM11.8833 54V52.5146C6.14072 52.5146 1.48542 47.8593 1.48542 42.1167H0H-1.48542C-1.48542 49.5 4.49998 55.4854 11.8833 55.4854V54ZM54 42.1167H52.5146C52.5146 47.8593 47.8593 52.5146 42.1167 52.5146V54V55.4854C49.5 55.4854 55.4854 49.5 55.4854 42.1167H54ZM42.1167 0V1.48542C47.8593 1.48542 52.5146 6.14072 52.5146 11.8833H54H55.4854C55.4854 4.49998 49.5 -1.48542 42.1167 -1.48542V0ZM11.8833 0V-1.48542C4.49998 -1.48542 -1.48542 4.49998 -1.48542 11.8833H0H1.48542C1.48542 6.14072 6.14072 1.48542 11.8833 1.48542V0Z" fill="white" fill-opacity="0.3" mask="url(#path-1-inside-1_1071_4960)"/>
<path d="M17 24.5005C17 23.3877 17.3376 22.3011 17.9681 21.3842C18.5987 20.4673 19.4925 19.7632 20.5316 19.3649C21.5707 18.9667 22.7062 18.893 23.788 19.1536C24.8699 19.4142 25.8472 19.9968 26.591 20.8245C26.6434 20.8805 26.7067 20.9252 26.7771 20.9557C26.8474 20.9863 26.9233 21.002 27 21.002C27.0767 21.002 27.1526 20.9863 27.2229 20.9557C27.2933 20.9252 27.3566 20.8805 27.409 20.8245C28.1504 19.9914 29.128 19.4039 30.2116 19.1401C31.2952 18.8764 32.4335 18.9489 33.4749 19.348C34.5163 19.7471 35.4114 20.454 36.0411 21.3744C36.6708 22.2949 37.0053 23.3853 37 24.5005C37 26.7905 35.5 28.5005 34 30.0005L28.508 35.3135C28.3217 35.5275 28.0919 35.6994 27.834 35.8178C27.5762 35.9362 27.296 35.9984 27.0123 36.0002C26.7285 36.002 26.4476 35.9434 26.1883 35.8283C25.9289 35.7131 25.697 35.5442 25.508 35.3325L20 30.0005C18.5 28.5005 17 26.8005 17 24.5005Z" stroke="white" stroke-width="2" stroke-linecap="round" stroke-linejoin="round"/>
</svg>
