<svg width="36" height="36" viewBox="0 0 36 36" fill="none" xmlns="http://www.w3.org/2000/svg">
<path d="M30 19.5007C30 27.0007 24.75 30.7507 18.51 32.9257C18.1832 33.0364 17.8283 33.0311 17.505 32.9107C11.25 30.7507 6 27.0007 6 19.5007V9.00067C6 8.60285 6.15804 8.22132 6.43934 7.94001C6.72064 7.65871 7.10218 7.50067 7.5 7.50067C10.5 7.50067 14.25 5.70067 16.86 3.42067C17.1778 3.14917 17.582 3 18 3C18.418 3 18.8222 3.14917 19.14 3.42067C21.765 5.71567 25.5 7.50067 28.5 7.50067C28.8978 7.50067 29.2794 7.65871 29.5607 7.94001C29.842 8.22132 30 8.60285 30 9.00067V19.5007Z" stroke="white" stroke-width="3.75" stroke-linecap="round" stroke-linejoin="round"/>
<path d="M18 12V18" stroke="white" stroke-width="3.75" stroke-linecap="round" stroke-linejoin="round"/>
<path d="M18 24H18.015" stroke="white" stroke-width="3.75" stroke-linecap="round" stroke-linejoin="round"/>
</svg>
