<svg width="36" height="36" viewBox="0 0 36 36" fill="none" xmlns="http://www.w3.org/2000/svg">
<path d="M30 12H6C5.17157 12 4.5 12.6716 4.5 13.5V16.5C4.5 17.3284 5.17157 18 6 18H30C30.8284 18 31.5 17.3284 31.5 16.5V13.5C31.5 12.6716 30.8284 12 30 12Z" stroke="white" stroke-width="3.75" stroke-linecap="round" stroke-linejoin="round"/>
<path d="M18 12V31.5" stroke="white" stroke-width="3.75" stroke-linecap="round" stroke-linejoin="round"/>
<path d="M28.5 18V28.5C28.5 29.2956 28.1839 30.0587 27.6213 30.6213C27.0587 31.1839 26.2956 31.5 25.5 31.5H10.5C9.70435 31.5 8.94129 31.1839 8.37868 30.6213C7.81607 30.0587 7.5 29.2956 7.5 28.5V18" stroke="white" stroke-width="3.75" stroke-linecap="round" stroke-linejoin="round"/>
<path d="M11.25 12.0007C10.2554 12.0007 9.30161 11.6056 8.59835 10.9023C7.89509 10.199 7.5 9.24522 7.5 8.25066C7.5 7.25609 7.89509 6.30227 8.59835 5.59901C9.30161 4.89574 10.2554 4.50066 11.25 4.50066C12.697 4.47544 14.115 5.17755 15.3191 6.5154C16.5232 7.85325 17.4574 9.76476 18 12.0007C18.5426 9.76476 19.4768 7.85325 20.6809 6.5154C21.885 5.17755 23.303 4.47544 24.75 4.50066C25.7446 4.50066 26.6984 4.89574 27.4017 5.59901C28.1049 6.30227 28.5 7.25609 28.5 8.25066C28.5 9.24522 28.1049 10.199 27.4017 10.9023C26.6984 11.6056 25.7446 12.0007 24.75 12.0007" stroke="white" stroke-width="3.75" stroke-linecap="round" stroke-linejoin="round"/>
</svg>
