<svg width="35" height="35" viewBox="0 0 35 35" fill="none" xmlns="http://www.w3.org/2000/svg">
<path d="M31.4515 17.1555H27.9061C27.2813 17.1541 26.6733 17.3575 26.175 17.7344C25.6768 18.1113 25.3157 18.6411 25.147 19.2427L21.7874 31.1942C21.7657 31.2684 21.7206 31.3337 21.6587 31.3801C21.5969 31.4265 21.5216 31.4515 21.4443 31.4515C21.367 31.4515 21.2917 31.4265 21.2298 31.3801C21.168 31.3337 21.1228 31.2684 21.1012 31.1942L13.2097 3.1167C13.1881 3.04247 13.1429 2.97725 13.0811 2.93086C13.0192 2.88446 12.944 2.85938 12.8666 2.85938C12.7893 2.85938 12.7141 2.88446 12.6522 2.93086C12.5903 2.97725 12.5452 3.04247 12.5235 3.1167L9.16395 15.0682C8.99592 15.6675 8.63697 16.1955 8.14158 16.5722C7.6462 16.9489 7.04144 17.1537 6.4191 17.1555H2.85938" stroke="white" stroke-width="3.57402" stroke-linecap="round" stroke-linejoin="round"/>
</svg>
