<svg width="33" height="33" viewBox="0 0 33 33" fill="none" xmlns="http://www.w3.org/2000/svg">
<path d="M10.9152 30.0178C11.6687 30.0178 12.2796 29.407 12.2796 28.6534C12.2796 27.8999 11.6687 27.2891 10.9152 27.2891C10.1616 27.2891 9.55078 27.8999 9.55078 28.6534C9.55078 29.407 10.1616 30.0178 10.9152 30.0178Z" stroke="white" stroke-width="3.41096" stroke-linecap="round" stroke-linejoin="round"/>
<path d="M25.924 30.0178C26.6775 30.0178 27.2883 29.407 27.2883 28.6534C27.2883 27.8999 26.6775 27.2891 25.924 27.2891C25.1704 27.2891 24.5596 27.8999 24.5596 28.6534C24.5596 29.407 25.1704 30.0178 25.924 30.0178Z" stroke="white" stroke-width="3.41096" stroke-linecap="round" stroke-linejoin="round"/>
<path d="M2.79785 2.79688H5.52662L9.15588 19.7425C9.28902 20.3631 9.63433 20.9179 10.1324 21.3114C10.6304 21.7048 11.2501 21.9124 11.8847 21.8983H25.2283C25.8494 21.8973 26.4515 21.6844 26.9352 21.295C27.419 20.9055 27.7554 20.3627 27.8889 19.7562L30.1401 9.6188H6.98651" stroke="white" stroke-width="3.41096" stroke-linecap="round" stroke-linejoin="round"/>
</svg>
