<svg width="33" height="33" viewBox="0 0 33 33" fill="none" xmlns="http://www.w3.org/2000/svg">
<path d="M5.39666 18.8879C5.14137 18.8888 4.89106 18.8172 4.67483 18.6815C4.45861 18.5458 4.28533 18.3515 4.17513 18.1212C4.06493 17.8909 4.02233 17.6341 4.05229 17.3805C4.08225 17.127 4.18353 16.8872 4.34437 16.6889L17.7004 2.92817C17.8006 2.81253 17.9371 2.73438 18.0876 2.70656C18.238 2.67874 18.3935 2.70289 18.5284 2.77506C18.6633 2.84722 18.7697 2.96311 18.83 3.1037C18.8904 3.24429 18.9012 3.40123 18.8606 3.54875L16.2704 11.6703C16.194 11.8747 16.1683 12.0946 16.1956 12.3111C16.2229 12.5276 16.3023 12.7343 16.427 12.9134C16.5517 13.0925 16.7179 13.2386 16.9115 13.3393C17.1051 13.44 17.3203 13.4923 17.5385 13.4916H26.9821C27.2374 13.4907 27.4877 13.5623 27.704 13.698C27.9202 13.8337 28.0935 14.028 28.2037 14.2583C28.3139 14.4886 28.3565 14.7454 28.3265 14.999C28.2966 15.2525 28.1953 15.4923 28.0344 15.6906L14.6784 29.4513C14.5782 29.567 14.4417 29.6451 14.2913 29.6729C14.1408 29.7008 13.9854 29.6766 13.8504 29.6045C13.7155 29.5323 13.6092 29.4164 13.5488 29.2758C13.4884 29.1352 13.4776 28.9783 13.5182 28.8308L16.1085 20.7092C16.1848 20.5048 16.2105 20.2849 16.1832 20.0684C16.1559 19.8519 16.0765 19.6452 15.9518 19.4661C15.8271 19.287 15.6609 19.1409 15.4673 19.0402C15.2737 18.9395 15.0585 18.8872 14.8403 18.8879H5.39666Z" stroke="white" stroke-width="3.37273" stroke-linecap="round" stroke-linejoin="round"/>
</svg>
