<svg width="35" height="35" viewBox="0 0 35 35" fill="none" xmlns="http://www.w3.org/2000/svg">
<path d="M24.1055 31.1953V28.3594H28.3594V24.1055H31.1953V29.0684C31.1953 29.6214 30.9684 30.1177 30.543 30.543C30.1177 30.9684 29.6214 31.1953 29.0684 31.1953H24.1055ZM9.92578 31.1953H4.96289C4.40988 31.1953 3.91359 30.9684 3.4882 30.543C3.06281 30.1177 2.83594 29.6214 2.83594 29.0684V24.1055H5.67188V28.3594H9.92578V31.1953ZM24.1055 2.83594H29.0684C29.6214 2.83594 30.1177 3.06281 30.543 3.4882C30.9684 3.91359 31.1953 4.40988 31.1953 4.96289V9.92578H28.3594V5.67188H24.1055V2.83594ZM9.92578 2.83594V5.67188H5.67188V9.92578H2.83594V4.96289C2.83594 4.40988 3.06281 3.91359 3.4882 3.4882C3.91359 3.06281 4.40988 2.83594 4.96289 2.83594H9.92578ZM18.4336 24.46L24.1055 21.1986V14.6902L18.4336 17.9515V24.46ZM17.0156 15.4842L22.6875 12.2371L17.0156 8.90484L11.3438 12.2371L17.0156 15.4842ZM9.92578 21.1986L15.5977 24.46V17.9515L9.92578 14.6902V21.1986ZM25.8496 10.7624C26.5586 11.2161 26.9414 11.8259 26.9414 12.6341V21.5957C26.9414 22.4039 26.5586 23.0136 25.8496 23.4674L18.0791 27.9765C17.3701 28.4303 16.6611 28.4303 15.9521 27.9765L8.18168 23.4674C7.4727 23.0136 7.08984 22.4039 7.08984 21.5957V12.6341C7.08984 11.8259 7.4727 11.2161 8.18168 10.7624L15.9521 6.25324C16.3066 6.06891 16.6611 5.98383 17.0156 5.98383C17.3701 5.98383 17.7246 6.06891 18.0791 6.25324L25.8496 10.7624Z" fill="white"/>
</svg>
