<svg width="22" height="21" viewBox="0 0 22 21" fill="none" xmlns="http://www.w3.org/2000/svg">
<path d="M7.34079 19.476C6.21776 18.9872 5.24077 18.3273 4.40982 17.4963C3.57886 16.6654 2.91897 15.6884 2.43013 14.5654C1.94129 13.4423 1.69688 12.2381 1.69688 10.9526C1.69688 9.66705 1.94129 8.46312 2.43013 7.34079C2.91897 6.21845 3.57852 5.24146 4.40879 4.40982C5.23906 3.57818 6.21605 2.91828 7.33976 2.43013C8.46347 1.94198 9.66773 1.69756 10.9526 1.69688C12.2374 1.69619 13.4417 1.94061 14.5654 2.43013C15.6891 2.91965 16.6661 3.57955 17.4963 4.40982C18.3266 5.24009 18.9865 6.21708 19.476 7.34079C19.9655 8.46449 20.2096 9.66842 20.2082 10.9526C20.2069 12.2367 19.9628 13.441 19.476 14.5654C18.9892 15.6898 18.3293 16.6667 17.4963 17.4963C16.6633 18.3259 15.6863 18.9858 14.5654 19.476C13.4444 19.9662 12.2401 20.2103 10.9526 20.2082C9.66499 20.2062 8.46107 19.9621 7.34079 19.476ZM13.8321 15.2719L15.2719 13.8321L11.981 10.5412V5.81051H9.92415V11.3639L13.8321 15.2719ZM4.37074 0L5.81051 1.43977L1.43977 5.81051L0 4.37074L4.37074 0ZM17.5344 0L21.9051 4.37074L20.4653 5.81051L16.0946 1.43977L17.5344 0Z" fill="white"/>
</svg>
