<svg width="25" height="25" viewBox="0 0 25 25" fill="none" xmlns="http://www.w3.org/2000/svg">
<path d="M7.1986 21.5973V19.5405H11.3122V16.3524C10.4724 16.1639 9.72266 15.8084 9.0631 15.286C8.40355 14.7635 7.91917 14.1077 7.60996 13.3186C6.32445 13.1643 5.24908 12.6032 4.38384 11.6351C3.51861 10.667 3.08565 9.53132 3.08496 8.22798V7.19957C3.08496 6.63395 3.28653 6.14991 3.68967 5.74746C4.0928 5.34501 4.57684 5.14344 5.14178 5.14276H7.1986V3.08594H17.4827V5.14276H19.5395C20.1051 5.14276 20.5895 5.34432 20.9927 5.74746C21.3958 6.1506 21.597 6.63463 21.5963 7.19957V8.22798C21.5963 9.53064 21.1634 10.6663 20.2974 11.6351C19.4315 12.6039 18.3562 13.165 17.0713 13.3186C16.7628 14.1071 16.2788 14.7628 15.6192 15.286C14.9597 15.8091 14.2096 16.1646 13.3691 16.3524V19.5405H17.4827V21.5973H7.1986ZM7.1986 11.1075V7.19957H5.14178V8.22798C5.14178 8.87931 5.33032 9.46653 5.7074 9.98965C6.08449 10.5128 6.58155 10.8854 7.1986 11.1075ZM17.4827 11.1075C18.0997 10.8847 18.5968 10.5117 18.9739 9.98862C19.351 9.4655 19.5395 8.87862 19.5395 8.22798V7.19957H17.4827V11.1075Z" fill="white"/>
</svg>
