<svg width="37" height="37" viewBox="0 0 37 37" fill="none" xmlns="http://www.w3.org/2000/svg">
<g clip-path="url(#clip0_930_527)">
<path d="M11.2364 5.62231C11.5969 5.57417 11.9617 5.6712 12.2506 5.89205C12.5395 6.1129 12.7289 6.43948 12.777 6.79995L13.1401 9.51824C14.2215 9.37383 15.3159 9.66491 16.1827 10.3275C17.0495 10.99 17.6176 11.9698 17.762 13.0512L18.8511 21.206C18.9955 22.2874 18.7044 23.3819 18.0418 24.2487C17.3793 25.1155 16.3995 25.6836 15.3181 25.828L16.0442 31.2646C16.0923 31.6251 15.9953 31.9899 15.7744 32.2788C15.5536 32.5677 15.227 32.7571 14.8665 32.8052C14.506 32.8534 14.1412 32.7563 13.8523 32.5355C13.5634 32.3146 13.374 31.9881 13.3259 31.6276L12.5998 26.191C11.5184 26.3354 10.424 26.0443 9.55717 25.3818C8.69038 24.7192 8.12229 23.7395 7.97788 22.6581L6.88884 14.5032C6.74443 13.4218 7.03551 12.3273 7.69806 11.4605C8.36061 10.5938 9.34036 10.0257 10.4218 9.88126L10.0588 7.16296C10.0106 6.8025 10.1076 6.43767 10.3285 6.14874C10.5493 5.85981 10.8759 5.67045 11.2364 5.62231ZM23.4687 3.98876C23.8016 3.94434 24.1392 4.02365 24.4176 4.21164C24.6959 4.39964 24.8955 4.68323 24.9786 5.00865L25.0094 5.1664L25.7354 10.603C26.7754 10.464 27.8292 10.7278 28.6812 11.3402C29.5332 11.9526 30.1189 12.8675 30.3186 13.8976L30.3573 14.1359L31.4464 22.2908C31.5853 23.3308 31.3216 24.3846 30.7092 25.2366C30.0967 26.0886 29.1819 26.6743 28.1518 26.874L27.9135 26.9127L28.2765 29.631C28.3224 29.9775 28.2342 30.3284 28.03 30.6121C27.8259 30.8957 27.5211 31.0907 27.178 31.1572C26.8349 31.2237 26.4793 31.1566 26.184 30.9698C25.8886 30.7829 25.6758 30.4903 25.5889 30.1518L25.5582 29.994L25.1952 27.2757C24.1551 27.4147 23.1013 27.151 22.2493 26.5385C21.3974 25.9261 20.8116 25.0112 20.612 23.9811L20.5732 23.7428L19.4842 15.588C19.3452 14.5479 19.609 13.4941 20.2214 12.6421C20.8338 11.7901 21.7487 11.2044 22.7788 11.0047L23.0171 10.966L22.2911 5.52941C22.2429 5.16894 22.34 4.80411 22.5608 4.51518C22.7817 4.22626 23.1082 4.03689 23.4687 3.98876Z" fill="white"/>
</g>
<defs>
<clipPath id="clip0_930_527">
<rect width="32.9091" height="32.9091" fill="white" transform="translate(0 4.35615) rotate(-7.60652)"/>
</clipPath>
</defs>
</svg>
