<svg width="39" height="39" viewBox="0 0 39 39" fill="none" xmlns="http://www.w3.org/2000/svg">
<g clip-path="url(#clip0_930_517)">
<path d="M23.151 33.9585C24.525 34.3599 25.9689 33.569 26.3704 32.1949L32.1941 12.263C32.5956 10.8889 31.8046 9.44501 30.4306 9.04354L17.9731 5.40374C16.5991 5.00227 15.1551 5.79322 14.7537 7.16727L8.92998 27.0992C8.52851 28.4733 9.31945 29.9172 10.6935 30.3187L23.151 33.9585ZM18.7421 25.9098C19.0725 26.0064 19.351 26.2302 19.5164 26.5321C19.6818 26.834 19.7204 27.1892 19.6239 27.5196C19.5274 27.8499 19.3035 28.1285 19.0017 28.2938C18.6998 28.4592 18.3446 28.4979 18.0142 28.4013C17.6838 28.3048 17.4053 28.081 17.2399 27.7791C17.0745 27.4772 17.0359 27.122 17.1324 26.7916C17.2289 26.4612 17.4528 26.1827 17.7547 26.0173C18.0565 25.852 18.4117 25.8133 18.7421 25.9098Z" fill="white"/>
</g>
<defs>
<clipPath id="clip0_930_517">
<rect width="31.1479" height="31.1479" fill="white" transform="translate(8.73553) rotate(16.2872)"/>
</clipPath>
</defs>
</svg>
