<svg width="66" height="66" viewBox="0 0 66 66" fill="none" xmlns="http://www.w3.org/2000/svg">
<path d="M0 32.6316C0 14.6097 14.6097 0 32.6316 0C50.6535 0 65.2632 14.6097 65.2632 32.6316C65.2632 50.6535 50.6535 65.2632 32.6316 65.2632C14.6097 65.2632 0 50.6535 0 32.6316Z" fill="white" fill-opacity="0.1"/>
<path d="M46.2281 25.834L34.0035 33.6207C33.5887 33.8616 33.1175 33.9886 32.6378 33.9886C32.158 33.9886 31.6868 33.8616 31.272 33.6207L19.0352 25.834" stroke="white" stroke-width="2.7193" stroke-linecap="round" stroke-linejoin="round"/>
<path d="M43.5088 21.7559H21.7545C20.2526 21.7559 19.0352 22.9733 19.0352 24.4752V40.7909C19.0352 42.2928 20.2526 43.5102 21.7545 43.5102H43.5088C45.0107 43.5102 46.2281 42.2928 46.2281 40.7909V24.4752C46.2281 22.9733 45.0107 21.7559 43.5088 21.7559Z" stroke="white" stroke-width="2.7193" stroke-linecap="round" stroke-linejoin="round"/>
</svg>
