<svg width="80" height="80" viewBox="0 0 80 80" fill="none" xmlns="http://www.w3.org/2000/svg">
<path d="M68.185 11.8156L76.565 13.4906C77.015 13.5806 77.385 13.9106 77.515 14.3556C77.5807 14.5718 77.5865 14.8017 77.5319 15.0209C77.4773 15.2401 77.3643 15.4404 77.205 15.6006L70.34 22.4706C69.5174 23.2886 68.4051 23.7486 67.245 23.7506H61.55L47.25 38.0556C47.5228 39.0857 47.573 40.1621 47.3972 41.2131C47.2214 42.2641 46.8236 43.2656 46.2304 44.1509C45.6371 45.0361 44.8621 45.7848 43.9568 46.347C43.0516 46.9092 42.0369 47.272 40.9805 47.4113C39.924 47.5506 38.8499 47.4632 37.8299 47.1549C36.8099 46.8466 35.8672 46.3244 35.0648 45.6232C34.2624 44.922 33.6186 44.0578 33.1764 43.0883C32.7341 42.1188 32.5035 41.0662 32.5 40.0006C32.4998 38.8497 32.7644 37.7142 33.2734 36.682C33.7824 35.6498 34.5221 34.7486 35.4352 34.0481C36.3484 33.3476 37.4105 32.8667 38.5394 32.6426C39.6682 32.4185 40.8335 32.4571 41.945 32.7556L56.25 18.4456V12.7606C56.25 11.6006 56.71 10.4856 57.53 9.66559L64.4 2.79559C64.5601 2.63624 64.7605 2.52326 64.9797 2.46868C65.1989 2.41409 65.4288 2.41994 65.645 2.4856C66.09 2.6156 66.42 2.98559 66.51 3.43559L68.185 11.8156Z" fill="#4FFAFF"/>
<path d="M10.0034 40C10.0085 44.2898 10.9336 48.5286 12.7162 52.4305C14.4989 56.3324 17.0976 59.8066 20.337 62.6187C23.5765 65.4309 27.3814 67.5156 31.4951 68.7322C35.6088 69.9489 39.9355 70.2691 44.1835 69.6714C48.4314 69.0737 52.5018 67.5719 56.12 65.2673C59.7382 62.9627 62.8201 59.909 65.1578 56.3121C67.4954 52.7152 69.0345 48.6587 69.6712 44.4164C70.3078 40.1741 70.0273 35.8446 68.8484 31.72C68.6829 31.2381 68.6172 30.7276 68.6553 30.2195C68.6934 29.7114 68.8345 29.2164 69.07 28.7645C69.3055 28.3127 69.6305 27.9136 70.0252 27.5914C70.4199 27.2691 70.8761 27.0306 71.3659 26.8904C71.8557 26.7501 72.369 26.7109 72.8744 26.7753C73.3798 26.8397 73.8669 27.0063 74.3059 27.2649C74.7449 27.5236 75.1266 27.8689 75.4279 28.2797C75.7292 28.6906 75.9438 29.1585 76.0584 29.655C78.3411 37.6426 77.9075 46.162 74.8257 53.8766C71.7439 61.5913 66.1883 68.0646 59.0305 72.281C51.8727 76.4974 43.5176 78.2184 35.2762 77.174C27.0347 76.1295 19.3731 72.3787 13.4934 66.51C7.6201 60.6317 3.86526 52.9694 2.81841 44.7261C1.77155 36.4827 3.49195 28.125 7.7095 20.9653C11.9271 13.8056 18.4029 8.24929 26.1204 5.16868C33.8378 2.08807 42.3598 1.65764 50.3484 3.94498C51.2996 4.22304 52.1021 4.86632 52.5805 5.73424C53.0588 6.60216 53.1742 7.62415 52.9013 8.57686C52.6284 9.52957 51.9896 10.3355 51.1243 10.8186C50.259 11.3017 49.2376 11.4226 48.2834 11.155C43.8163 9.87222 39.1122 9.64491 34.5422 10.491C29.9722 11.337 25.6612 13.2334 21.9494 16.0303C18.2375 18.8273 15.2263 22.4484 13.1532 26.6081C11.0801 30.7678 10.0018 35.3523 10.0034 40Z" fill="#4FFAFF"/>
<path d="M25.0024 40.0007C25.0027 42.7336 25.7491 45.4146 27.1612 47.7545C28.5733 50.0944 30.5974 52.0043 33.0152 53.2783C35.4331 54.5523 38.1529 55.142 40.8812 54.9839C43.6096 54.8257 46.243 53.9256 48.4974 52.3807C50.7514 50.8319 52.539 48.6963 53.667 46.205C54.7951 43.7136 55.2205 40.9613 54.8974 38.2457C54.81 37.5867 54.8998 36.9163 55.1576 36.3035C55.4154 35.6908 55.8319 35.1579 56.3641 34.7596C56.8964 34.3613 57.5252 34.1121 58.1857 34.0375C58.8463 33.963 59.5148 34.0659 60.1224 34.3357C60.7298 34.6019 61.2558 35.0244 61.6467 35.5602C62.0376 36.096 62.2794 36.7259 62.3474 37.3857C62.8907 42.0262 61.9759 46.7207 59.73 50.8177C57.484 54.9147 54.0184 58.2109 49.8141 60.2488C45.6098 62.2867 40.8753 62.9653 36.2679 62.1903C31.6604 61.4153 27.4085 59.2252 24.1022 55.924C20.796 52.6227 18.5994 48.3741 17.8174 43.7678C17.0354 39.1615 17.7068 34.4261 19.7383 30.2187C21.7699 26.0112 25.0608 22.5406 29.1544 20.2885C33.2479 18.0364 37.9411 17.1144 42.5824 17.6507C43.0794 17.6968 43.5621 17.8416 44.0024 18.0767C44.4427 18.3118 44.8316 18.6325 45.1463 19.0198C45.4611 19.4072 45.6953 19.8535 45.8353 20.3326C45.9754 20.8116 46.0183 21.3138 45.9618 21.8097C45.9052 22.3056 45.7502 22.7852 45.5058 23.2204C45.2615 23.6556 44.9327 24.0377 44.5388 24.3442C44.1449 24.6507 43.6938 24.8755 43.2119 25.0054C42.73 25.1353 42.227 25.1677 41.7324 25.1007C39.6307 24.8566 37.5011 25.06 35.4836 25.6974C33.466 26.3348 31.6062 27.3918 30.0261 28.799C28.4461 30.2062 27.1816 31.9318 26.3158 33.8624C25.45 35.7929 25.0024 37.8848 25.0024 40.0007Z" fill="#4FFAFF"/>
</svg>
