<svg width="17" height="17" viewBox="0 0 17 17" fill="none" xmlns="http://www.w3.org/2000/svg">
<path d="M13.6813 6.84161C13.6813 10.2571 9.89226 13.8142 8.61992 14.9128C8.50138 15.0019 8.3571 15.0501 8.2088 15.0501C8.06049 15.0501 7.91621 15.0019 7.79768 14.9128C6.52533 13.8142 2.73633 10.2571 2.73633 6.84161C2.73633 5.39022 3.31289 3.99828 4.33918 2.97199C5.36546 1.9457 6.75741 1.36914 8.2088 1.36914C9.66018 1.36914 11.0521 1.9457 12.0784 2.97199C13.1047 3.99828 13.6813 5.39022 13.6813 6.84161Z" stroke="white" stroke-width="1.36812" stroke-linecap="round" stroke-linejoin="round"/>
<path d="M8.20843 8.89146C9.34181 8.89146 10.2606 7.97267 10.2606 6.83928C10.2606 5.7059 9.34181 4.78711 8.20843 4.78711C7.07504 4.78711 6.15625 5.7059 6.15625 6.83928C6.15625 7.97267 7.07504 8.89146 8.20843 8.89146Z" stroke="white" stroke-width="1.36812" stroke-linecap="round" stroke-linejoin="round"/>
</svg>
