<svg width="54" height="54" viewBox="0 0 54 54" fill="none" xmlns="http://www.w3.org/2000/svg">
<mask id="path-1-inside-1_1081_3686" fill="white">
<path d="M0 16C0 7.16344 7.16344 0 16 0H37.5519C46.3885 0 53.5519 7.16344 53.5519 16V37.5519C53.5519 46.3884 46.3885 53.5519 37.5519 53.5519H16C7.16345 53.5519 0 46.3884 0 37.5519V16Z"/>
</mask>
<path d="M0 16C0 7.16344 7.16344 0 16 0H37.5519C46.3885 0 53.5519 7.16344 53.5519 16V37.5519C53.5519 46.3884 46.3885 53.5519 37.5519 53.5519H16C7.16345 53.5519 0 46.3884 0 37.5519V16Z" fill="#FE9A00"/>
<path d="M16 0V2H37.5519V0V-2H16V0ZM53.5519 16H51.5519V37.5519H53.5519H55.5519V16H53.5519ZM37.5519 53.5519V51.5519H16V53.5519V55.5519H37.5519V53.5519ZM0 37.5519H2V16H0H-2V37.5519H0ZM16 53.5519V51.5519C8.26802 51.5519 2 45.2839 2 37.5519H0H-2C-2 47.493 6.05888 55.5519 16 55.5519V53.5519ZM53.5519 37.5519H51.5519C51.5519 45.2839 45.2839 51.5519 37.5519 51.5519V53.5519V55.5519C47.493 55.5519 55.5519 47.493 55.5519 37.5519H53.5519ZM37.5519 0V2C45.2839 2 51.5519 8.26801 51.5519 16H53.5519H55.5519C55.5519 6.05887 47.493 -2 37.5519 -2V0ZM16 0V-2C6.05887 -2 -2 6.05887 -2 16H0H2C2 8.26801 8.26801 2 16 2V0Z" fill="white" fill-opacity="0.66" mask="url(#path-1-inside-1_1081_3686)"/>
<g clip-path="url(#clip0_1081_3686)">
<path d="M29.1846 19.0684H24.3678L21.9594 21.9585H19.0693C18.5583 21.9585 18.0682 22.1614 17.7069 22.5228C17.3456 22.8841 17.1426 23.3742 17.1426 23.8852V32.5555C17.1426 33.0665 17.3456 33.5565 17.7069 33.9179C18.0682 34.2792 18.5583 34.4822 19.0693 34.4822H34.4831C34.9941 34.4822 35.4842 34.2792 35.8456 33.9179C36.2069 33.5565 36.4099 33.0665 36.4099 32.5555V23.8852C36.4099 23.3742 36.2069 22.8841 35.8456 22.5228C35.4842 22.1614 34.9941 21.9585 34.4831 21.9585H31.5931L29.1846 19.0684Z" stroke="white" stroke-width="2.40841" stroke-linecap="round" stroke-linejoin="round"/>
<path d="M26.7749 30.6298C28.371 30.6298 29.665 29.3359 29.665 27.7397C29.665 26.1435 28.371 24.8496 26.7749 24.8496C25.1787 24.8496 23.8848 26.1435 23.8848 27.7397C23.8848 29.3359 25.1787 30.6298 26.7749 30.6298Z" stroke="white" stroke-width="2.40841" stroke-linecap="round" stroke-linejoin="round"/>
</g>
<defs>
<clipPath id="clip0_1081_3686">
<rect width="23.1208" height="23.1208" fill="white" transform="translate(15.2148 15.2148)"/>
</clipPath>
</defs>
</svg>
