<svg width="73" height="73" viewBox="0 0 73 73" fill="none" xmlns="http://www.w3.org/2000/svg">
<mask id="path-1-inside-1_1081_3722" fill="white">
<path d="M0 9.35313C0 4.18754 4.18754 0 9.35313 0L62.7562 0C67.9218 0 72.1094 4.18754 72.1094 9.35313V62.7562C72.1094 67.9218 67.9218 72.1094 62.7562 72.1094H9.35313C4.18754 72.1094 0 67.9218 0 62.7562L0 9.35313Z"/>
</mask>
<path d="M0 9.35313C0 4.18754 4.18754 0 9.35313 0L62.7562 0C67.9218 0 72.1094 4.18754 72.1094 9.35313V62.7562C72.1094 67.9218 67.9218 72.1094 62.7562 72.1094H9.35313C4.18754 72.1094 0 67.9218 0 62.7562L0 9.35313Z" fill="url(#paint0_linear_1081_3722)"/>
<path d="M9.35313 0V1.16914L62.7562 1.16914V0V-1.16914L9.35313 -1.16914V0ZM72.1094 9.35313H70.9402V62.7562H72.1094H73.2785V9.35313H72.1094ZM62.7562 72.1094V70.9402H9.35313V72.1094V73.2785H62.7562V72.1094ZM0 62.7562H1.16914L1.16914 9.35313H0H-1.16914L-1.16914 62.7562H0ZM9.35313 72.1094V70.9402C4.83324 70.9402 1.16914 67.2761 1.16914 62.7562H0H-1.16914C-1.16914 68.5675 3.54184 73.2785 9.35313 73.2785V72.1094ZM72.1094 62.7562H70.9402C70.9402 67.2761 67.2761 70.9402 62.7562 70.9402V72.1094V73.2785C68.5675 73.2785 73.2785 68.5675 73.2785 62.7562H72.1094ZM62.7562 0V1.16914C67.2761 1.16914 70.9402 4.83324 70.9402 9.35313H72.1094H73.2785C73.2785 3.54184 68.5675 -1.16914 62.7562 -1.16914V0ZM9.35313 0V-1.16914C3.54184 -1.16914 -1.16914 3.54184 -1.16914 9.35313H0H1.16914C1.16914 4.83324 4.83324 1.16914 9.35313 1.16914V0Z" fill="white" fill-opacity="0.3" mask="url(#path-1-inside-1_1081_3722)"/>
<path d="M28.904 52.9445C26.6735 51.9814 24.7332 50.6749 23.0832 49.0249C21.4332 47.3749 20.1273 45.4346 19.1654 43.204C18.2035 40.9735 17.7219 38.5901 17.7207 36.054C17.7195 33.5179 18.201 31.1346 19.1654 28.904C20.1297 26.6735 21.4357 24.7332 23.0832 23.0832C24.7308 21.4332 26.671 20.1273 28.904 19.1654C31.137 18.2035 33.5204 17.7219 36.054 17.7207C38.5877 17.7195 40.971 18.201 43.204 19.1654C45.437 20.1297 47.3773 21.4357 49.0249 23.0832C50.6724 24.7308 51.979 26.671 52.9445 28.904C53.9101 31.137 54.391 33.5204 54.3874 36.054C54.3837 38.5877 53.9022 40.971 52.9427 43.204C51.9833 45.437 50.6773 47.3773 49.0249 49.0249C47.3724 50.6724 45.4321 51.979 43.204 52.9445C40.9759 53.9101 38.5926 54.391 36.054 54.3874C33.5155 54.3837 31.1322 53.904 28.904 52.9445ZM46.4582 46.4582C49.2999 43.6165 50.7207 40.1485 50.7207 36.054C50.7207 31.9596 49.2999 28.4915 46.4582 25.6499C43.6165 22.8082 40.1485 21.3874 36.054 21.3874C31.9596 21.3874 28.4915 22.8082 25.6499 25.6499C22.8082 28.4915 21.3874 31.9596 21.3874 36.054C21.3874 40.1485 22.8082 43.6165 25.6499 46.4582C28.4915 49.2999 31.9596 50.7207 36.054 50.7207C40.1485 50.7207 43.6165 49.2999 46.4582 46.4582ZM28.2624 43.8457C26.1235 41.7068 25.054 39.1096 25.054 36.054C25.054 32.9985 26.1235 30.4013 28.2624 28.2624C30.4013 26.1235 32.9985 25.054 36.054 25.054C39.1096 25.054 41.7068 26.1235 43.8457 28.2624C45.9846 30.4013 47.054 32.9985 47.054 36.054C47.054 39.1096 45.9846 41.7068 43.8457 43.8457C41.7068 45.9846 39.1096 47.054 36.054 47.054C32.9985 47.054 30.4013 45.9846 28.2624 43.8457ZM41.2332 41.2332C42.6693 39.7971 43.3874 38.0707 43.3874 36.054C43.3874 34.0374 42.6693 32.311 41.2332 30.8749C39.7971 29.4388 38.0707 28.7207 36.054 28.7207C34.0374 28.7207 32.311 29.4388 30.8749 30.8749C29.4388 32.311 28.7207 34.0374 28.7207 36.054C28.7207 38.0707 29.4388 39.7971 30.8749 41.2332C32.311 42.6693 34.0374 43.3874 36.054 43.3874C38.0707 43.3874 39.7971 42.6693 41.2332 41.2332ZM33.4654 38.6445C32.7467 37.9259 32.3874 37.0624 32.3874 36.054C32.3874 35.0457 32.7467 34.1828 33.4654 33.4654C34.184 32.7479 35.0469 32.3886 36.054 32.3874C37.0611 32.3861 37.9247 32.7455 38.6445 33.4654C39.3644 34.1853 39.7232 35.0481 39.7207 36.054C39.7183 37.0599 39.3595 37.9234 38.6445 38.6445C37.9295 39.3657 37.066 39.7244 36.054 39.7207C35.042 39.717 34.1791 39.3583 33.4654 38.6445Z" fill="white"/>
<defs>
<linearGradient id="paint0_linear_1081_3722" x1="2.16201" y1="2.59441" x2="67.0222" y2="70.0489" gradientUnits="userSpaceOnUse">
<stop stop-color="#04A1A7"/>
<stop offset="1" stop-color="#005154"/>
</linearGradient>
</defs>
</svg>
