<svg width="54" height="54" viewBox="0 0 54 54" fill="none" xmlns="http://www.w3.org/2000/svg">
<mask id="path-1-inside-1_1071_4977" fill="white">
<path d="M0 13.2658C0 5.93931 5.93931 0 13.2658 0H40.7342C48.0607 0 54 5.93931 54 13.2658V40.7342C54 48.0607 48.0607 54 40.7342 54H13.2658C5.93931 54 0 48.0607 0 40.7342V13.2658Z"/>
</mask>
<path d="M0 13.2658C0 5.93931 5.93931 0 13.2658 0H40.7342C48.0607 0 54 5.93931 54 13.2658V40.7342C54 48.0607 48.0607 54 40.7342 54H13.2658C5.93931 54 0 48.0607 0 40.7342V13.2658Z" fill="#4F39F6"/>
<path d="M13.2658 0V1.65823H40.7342V0V-1.65823H13.2658V0ZM54 13.2658H52.3418V40.7342H54H55.6582V13.2658H54ZM40.7342 54V52.3418H13.2658V54V55.6582H40.7342V54ZM0 40.7342H1.65823V13.2658H0H-1.65823V40.7342H0ZM13.2658 54V52.3418C6.85512 52.3418 1.65823 47.1449 1.65823 40.7342H0H-1.65823C-1.65823 48.9765 5.02349 55.6582 13.2658 55.6582V54ZM54 40.7342H52.3418C52.3418 47.1449 47.1449 52.3418 40.7342 52.3418V54V55.6582C48.9765 55.6582 55.6582 48.9765 55.6582 40.7342H54ZM40.7342 0V1.65823C47.1449 1.65823 52.3418 6.85513 52.3418 13.2658H54H55.6582C55.6582 5.0235 48.9765 -1.65823 40.7342 -1.65823V0ZM13.2658 0V-1.65823C5.0235 -1.65823 -1.65823 5.0235 -1.65823 13.2658H0H1.65823C1.65823 6.85513 6.85513 1.65823 13.2658 1.65823V0Z" fill="white" fill-opacity="0.3" mask="url(#path-1-inside-1_1071_4977)"/>
<path d="M31 36V34C31 32.9391 30.5786 31.9217 29.8284 31.1716C29.0783 30.4214 28.0609 30 27 30H21C19.9391 30 18.9217 30.4214 18.1716 31.1716C17.4214 31.9217 17 32.9391 17 34V36" stroke="white" stroke-width="2" stroke-linecap="round" stroke-linejoin="round"/>
<path d="M31 18.1289C31.8578 18.3513 32.6174 18.8522 33.1597 19.553C33.702 20.2538 33.9962 21.1148 33.9962 22.0009C33.9962 22.887 33.702 23.748 33.1597 24.4488C32.6174 25.1496 31.8578 25.6505 31 25.8729" stroke="white" stroke-width="2" stroke-linecap="round" stroke-linejoin="round"/>
<path d="M37 36.0009V34.0009C36.9993 33.1146 36.7044 32.2536 36.1614 31.5532C35.6184 30.8527 34.8581 30.3524 34 30.1309" stroke="white" stroke-width="2" stroke-linecap="round" stroke-linejoin="round"/>
<path d="M24 26C26.2091 26 28 24.2091 28 22C28 19.7909 26.2091 18 24 18C21.7909 18 20 19.7909 20 22C20 24.2091 21.7909 26 24 26Z" stroke="white" stroke-width="2" stroke-linecap="round" stroke-linejoin="round"/>
</svg>
