<svg width="17" height="17" viewBox="0 0 17 17" fill="none" xmlns="http://www.w3.org/2000/svg">
<path d="M9.46194 11.3345C9.60322 11.3994 9.76238 11.4142 9.91321 11.3765C10.064 11.3389 10.1975 11.2509 10.2917 11.1272L10.5345 10.8091C10.662 10.6392 10.8272 10.5013 11.0172 10.4063C11.2072 10.3114 11.4166 10.2619 11.629 10.2619H13.6812C14.0441 10.2619 14.392 10.406 14.6486 10.6626C14.9052 10.9192 15.0493 11.2672 15.0493 11.63V13.6822C15.0493 14.045 14.9052 14.393 14.6486 14.6496C14.392 14.9062 14.0441 15.0503 13.6812 15.0503C10.4156 15.0503 7.28372 13.753 4.97457 11.4439C2.66543 9.13476 1.36816 6.00288 1.36816 2.73726C1.36816 2.37441 1.5123 2.02642 1.76888 1.76985C2.02545 1.51328 2.37343 1.36914 2.73628 1.36914H4.78846C5.1513 1.36914 5.49929 1.51328 5.75586 1.76985C6.01243 2.02642 6.15657 2.37441 6.15657 2.73726V4.78943C6.15657 5.00183 6.10712 5.2113 6.01214 5.40127C5.91715 5.59124 5.77924 5.75649 5.60933 5.88393L5.28919 6.12403C5.16361 6.21992 5.07509 6.35633 5.03868 6.51008C5.00227 6.66383 5.0202 6.82545 5.08944 6.96748C6.02433 8.86633 7.56192 10.402 9.46194 11.3345Z" stroke="white" stroke-width="1.36812" stroke-linecap="round" stroke-linejoin="round"/>
</svg>
