<svg width="26" height="29" viewBox="0 0 26 29" fill="none" xmlns="http://www.w3.org/2000/svg">
<g clip-path="url(#clip0_996_5710)">
<path d="M12.0201 13.5645L0.106445 26.0463C0.240234 26.5205 0.480657 26.9577 0.809334 27.3247C1.13801 27.6917 1.54624 27.9786 2.00282 28.1636C2.4594 28.3487 2.95224 28.4268 3.44366 28.3922C3.93508 28.3576 4.41208 28.211 4.83819 27.9638L18.2433 20.3292L12.0201 13.5645Z" fill="#EA4335"/>
<path d="M24.0669 11.4434L18.2701 8.12305L11.7451 13.849L18.2967 20.3118L24.0493 17.0271C24.559 16.7603 24.9858 16.359 25.2836 15.8669C25.5815 15.3747 25.7389 14.8104 25.7389 14.2352C25.7389 13.6599 25.5815 13.0957 25.2836 12.6035C24.9858 12.1114 24.559 11.7101 24.0493 11.4433L24.0669 11.4434Z" fill="#FBBC04"/>
<path d="M0.106606 2.36133C0.0346372 2.62756 -0.00120899 2.90225 3.11044e-05 3.17804V25.2298C0.000741748 25.5055 0.0365549 25.7799 0.106606 26.0466L12.4286 13.8843L0.106606 2.36133Z" fill="#4285F4"/>
<path d="M12.1088 14.2041L18.2699 8.12296L4.88263 0.45275C4.37894 0.157778 3.80607 0.00156099 3.22237 6.16632e-06C1.77385 -0.00280903 0.500372 0.958581 0.106445 2.35261L12.1088 14.2041Z" fill="#34A853"/>
</g>
<defs>
<clipPath id="clip0_996_5710">
<rect width="25.7389" height="28.4536" fill="white"/>
</clipPath>
</defs>
</svg>
