<svg width="54" height="54" viewBox="0 0 54 54" fill="none" xmlns="http://www.w3.org/2000/svg">
<mask id="path-1-inside-1_1071_4967" fill="white">
<path d="M0 10.6059C0 4.74841 4.74841 0 10.6059 0L43.3941 0C49.2516 0 54 4.74841 54 10.6059V43.3941C54 49.2516 49.2516 54 43.3941 54H10.6059C4.74841 54 0 49.2516 0 43.3941L0 10.6059Z"/>
</mask>
<path d="M0 10.6059C0 4.74841 4.74841 0 10.6059 0L43.3941 0C49.2516 0 54 4.74841 54 10.6059V43.3941C54 49.2516 49.2516 54 43.3941 54H10.6059C4.74841 54 0 49.2516 0 43.3941L0 10.6059Z" fill="#FF2056"/>
<path d="M10.6059 0V1.32573L43.3941 1.32573V0V-1.32573L10.6059 -1.32573V0ZM54 10.6059H52.6743V43.3941H54H55.3257V10.6059H54ZM43.3941 54V52.6743H10.6059V54V55.3257H43.3941V54ZM0 43.3941H1.32573L1.32573 10.6059H0H-1.32573L-1.32573 43.3941H0ZM10.6059 54V52.6743C5.48059 52.6743 1.32573 48.5194 1.32573 43.3941H0H-1.32573C-1.32573 49.9838 4.01623 55.3257 10.6059 55.3257V54ZM54 43.3941H52.6743C52.6743 48.5194 48.5194 52.6743 43.3941 52.6743V54V55.3257C49.9838 55.3257 55.3257 49.9838 55.3257 43.3941H54ZM43.3941 0V1.32573C48.5194 1.32573 52.6743 5.48059 52.6743 10.6059H54H55.3257C55.3257 4.01623 49.9838 -1.32573 43.3941 -1.32573V0ZM10.6059 0V-1.32573C4.01623 -1.32573 -1.32573 4.01623 -1.32573 10.6059H0H1.32573C1.32573 5.48059 5.48059 1.32573 10.6059 1.32573V0Z" fill="white" fill-opacity="0.3" mask="url(#path-1-inside-1_1071_4967)"/>
<path d="M19.5 31.4993C18 32.7593 17.5 36.4993 17.5 36.4993C17.5 36.4993 21.24 35.9993 22.5 34.4993C23.21 33.6593 23.2 32.3693 22.41 31.5893C22.0213 31.2184 21.5093 31.004 20.9722 30.9874C20.4352 30.9708 19.9109 31.1531 19.5 31.4993Z" stroke="white" stroke-width="2" stroke-linecap="round" stroke-linejoin="round"/>
<path d="M27 30.0002L24 27.0002C24.5321 25.6197 25.2022 24.2963 26 23.0502C27.1652 21.1872 28.7876 19.6533 30.713 18.5943C32.6384 17.5354 34.8027 16.9866 37 17.0002C37 19.7202 36.22 24.5002 31 28.0002C29.7369 28.799 28.3968 29.469 27 30.0002Z" stroke="white" stroke-width="2" stroke-linecap="round" stroke-linejoin="round"/>
<path d="M24 26.9995H19C19 26.9995 19.55 23.9695 21 22.9995C22.62 21.9195 26 22.9995 26 22.9995" stroke="white" stroke-width="2" stroke-linecap="round" stroke-linejoin="round"/>
<path d="M27 30V35C27 35 30.03 34.45 31 33C32.08 31.38 31 28 31 28" stroke="white" stroke-width="2" stroke-linecap="round" stroke-linejoin="round"/>
</svg>
