<svg width="81" height="81" viewBox="0 0 81 81" fill="none" xmlns="http://www.w3.org/2000/svg">
<mask id="path-1-inside-1_989_2004" fill="white">
<path d="M0 16C0 7.16344 7.16344 0 16 0L65 0C73.8366 0 81 7.16344 81 16V65C81 73.8366 73.8366 81 65 81H16C7.16344 81 0 73.8366 0 65L0 16Z"/>
</mask>
<path d="M0 16C0 7.16344 7.16344 0 16 0L65 0C73.8366 0 81 7.16344 81 16V65C81 73.8366 73.8366 81 65 81H16C7.16344 81 0 73.8366 0 65L0 16Z" fill="#E7000B"/>
<path d="M16 0V2L65 2V0V-2L16 -2V0ZM81 16H79V65H81H83V16H81ZM65 81V79H16V81V83H65V81ZM0 65H2L2 16H0H-2L-2 65H0ZM16 81V79C8.26801 79 2 72.732 2 65H0H-2C-2 74.9411 6.05888 83 16 83V81ZM81 65H79C79 72.732 72.732 79 65 79V81V83C74.9411 83 83 74.9411 83 65H81ZM65 0V2C72.732 2 79 8.26801 79 16H81H83C83 6.05888 74.9411 -2 65 -2V0ZM16 0V-2C6.05888 -2 -2 6.05888 -2 16H0H2C2 8.26801 8.26801 2 16 2V0Z" fill="white" fill-opacity="0.3" mask="url(#path-1-inside-1_989_2004)"/>
<path d="M52.5 42.0007C52.5 49.5007 47.25 53.2507 41.01 55.4257C40.6832 55.5364 40.3283 55.5311 40.005 55.4107C33.75 53.2507 28.5 49.5007 28.5 42.0007V31.5007C28.5 31.1028 28.658 30.7213 28.9393 30.44C29.2206 30.1587 29.6022 30.0007 30 30.0007C33 30.0007 36.75 28.2007 39.36 25.9207C39.6778 25.6492 40.082 25.5 40.5 25.5C40.918 25.5 41.3222 25.6492 41.64 25.9207C44.265 28.2157 48 30.0007 51 30.0007C51.3978 30.0007 51.7794 30.1587 52.0607 30.44C52.342 30.7213 52.5 31.1028 52.5 31.5007V42.0007Z" stroke="white" stroke-width="3.75" stroke-linecap="round" stroke-linejoin="round"/>
<path d="M40.5 34.5V40.5" stroke="white" stroke-width="3.75" stroke-linecap="round" stroke-linejoin="round"/>
<path d="M40.5 46.5H40.515" stroke="white" stroke-width="3.75" stroke-linecap="round" stroke-linejoin="round"/>
</svg>
