<svg width="53" height="53" viewBox="0 0 53 53" fill="none" xmlns="http://www.w3.org/2000/svg">
<rect width="53" height="53" rx="10" fill="#155DFC"/>
<path d="M35.3346 27.6034C35.3346 33.1242 31.4701 35.8846 26.8767 37.4857C26.6362 37.5672 26.3749 37.5633 26.1369 37.4746C21.5326 35.8846 17.668 33.1242 17.668 27.6034V19.8742C17.668 19.5814 17.7843 19.3005 17.9914 19.0934C18.1984 18.8864 18.4793 18.77 18.7721 18.77C20.9805 18.77 23.7409 17.445 25.6621 15.7667C25.8961 15.5668 26.1936 15.457 26.5013 15.457C26.809 15.457 27.1065 15.5668 27.3405 15.7667C29.2728 17.4561 32.0221 18.77 34.2305 18.77C34.5233 18.77 34.8042 18.8864 35.0112 19.0934C35.2183 19.3005 35.3346 19.5814 35.3346 19.8742V27.6034Z" stroke="white" stroke-width="2.20833" stroke-linecap="round" stroke-linejoin="round"/>
<path d="M23.1875 26.5013L25.3958 28.7096L29.8125 24.293" stroke="white" stroke-width="2.20833" stroke-linecap="round" stroke-linejoin="round"/>
</svg>
