<svg width="88" height="38" viewBox="0 0 88 38" fill="none" xmlns="http://www.w3.org/2000/svg">
<g clip-path="url(#clip0_909_3456)">
<path d="M63.7929 16.0301V16.0195C63.7744 16.0195 63.7559 16.0195 63.7375 16.0195C61.079 16.0195 58.9453 18.235 58.9453 20.9726C58.9453 23.7102 61.079 25.8861 63.7375 25.8861C65.4096 25.8861 66.8786 24.9999 67.7226 23.6522C67.865 23.4122 67.7833 23.13 67.5617 22.9665C67.3613 22.8451 67.058 22.8847 66.9155 23.1273C66.2509 24.235 65.043 24.9181 63.7348 24.9181C61.7014 24.9181 60.0108 23.2882 59.9106 21.1335C59.9001 20.9884 59.9001 20.8249 59.9106 20.6455C59.9212 20.4767 59.9449 20.3238 59.9713 20.1893C60.024 19.886 60.2614 18.7783 61.2794 17.9C61.9361 17.3356 62.7775 17.0006 63.6953 16.9901V16.9954C65.4518 17.0587 66.9551 18.3826 67.269 20.1893H60.9603V21.1361H67.8307C68.0918 21.1361 68.3134 20.9541 68.3134 20.693V20.6113C68.1182 18.111 66.2166 16.1514 63.7902 16.0327" fill="#1856A7"/>
<path d="M50.0053 16.0176V16.4659C50.0053 16.4659 50.0027 16.4897 50.0027 16.5002V21.8647C50.0027 23.5526 48.6365 24.9004 46.9486 24.9188C45.2818 24.9004 43.934 23.5526 43.934 21.8647V16.5002C43.934 16.218 43.7125 16.0176 43.4514 16.0176C43.1903 16.0176 42.9688 16.218 42.9688 16.5002V21.8647C42.9688 24.0748 44.7358 25.8841 46.9486 25.8841C49.1614 25.8841 50.9865 24.0775 50.9865 21.8647V16.0176H50.0053Z" fill="#1856A7"/>
<path d="M40.3178 23.7752L39.8088 24.1471H39.7982L39.7296 24.1972C39.0439 24.7273 38.192 25.0095 37.2663 25.0095C34.9454 25.0095 33.057 23.1897 33.057 20.9532C33.057 18.7167 34.9454 16.8415 37.2663 16.8415C38.2158 16.8415 39.123 17.1553 39.8853 17.7488C39.9776 17.8226 40.091 17.8622 40.2097 17.8622C40.3811 17.8622 40.5367 17.7778 40.6079 17.6644C40.7002 17.572 40.7477 17.4428 40.7398 17.3004C40.7319 17.1448 40.658 16.9971 40.5314 16.8942C39.5978 16.1769 38.4373 15.7812 37.261 15.7812C34.3573 15.7944 31.9941 18.1154 31.9941 20.9506C31.9941 23.7858 34.3573 26.0645 37.261 26.0645C38.4479 26.0645 39.6083 25.6742 40.5499 24.941L40.9508 24.6482L40.3099 23.7726L40.3178 23.7752Z" fill="#1856A7"/>
<path d="M57.9574 16.0332H56.3961V16.0385C55.4677 16.0649 54.6686 16.4684 54.0013 17.2543C53.3103 18.0693 52.9648 19.0557 52.9648 20.2082V25.8813H53.9512V20.2082C53.9512 19.3484 54.1991 18.6073 54.6976 17.9875C55.1961 17.3625 55.7948 17.0539 56.4963 17.0539H57.9548V16.0358L57.9574 16.0332Z" fill="#1856A7"/>
<path d="M70.7565 16.0332H69.7754V25.8312H70.7565V16.0332Z" fill="#1856A7"/>
<path d="M70.9195 14.6463C70.9195 15.0076 70.6267 15.3003 70.2654 15.3003C69.9041 15.3003 69.6113 15.0076 69.6113 14.6463C69.6113 14.2849 69.9041 13.9922 70.2654 13.9922C70.6267 13.9922 70.9195 14.2849 70.9195 14.6463Z" fill="#1856A7"/>
<path d="M76.0786 12.8671C76.2896 12.6139 76.6694 12.4662 77.3894 12.4662C77.6663 12.4662 77.8984 12.2341 77.8984 11.9572C77.8984 11.6618 77.6663 11.4297 77.3894 11.4297C76.5639 11.4297 75.8043 11.6196 75.2953 12.1708C74.8074 12.7431 74.6386 13.5238 74.6175 14.5814V15.6812H73.2434C72.9665 15.6812 72.7344 15.9133 72.7344 16.1902C72.7344 16.4856 72.9665 16.7177 73.2434 16.7177H74.6175V25.851H75.654V16.7177H77.1125C77.4079 16.7177 77.6426 16.4856 77.6426 16.1902C77.6426 15.9159 77.4105 15.6812 77.1125 15.6812H75.654V14.5814C75.654 13.6293 75.8439 13.1229 76.076 12.8671" fill="#1856A7"/>
<path d="M87.9354 15.9664C87.9143 15.9031 87.851 15.8398 87.8088 15.7976C87.7244 15.7554 87.64 15.7132 87.5556 15.6921H87.429C87.4079 15.6921 87.3868 15.7132 87.3657 15.7132H87.3235C87.2602 15.7343 87.1758 15.7765 87.1336 15.8398C87.1125 15.8398 87.1125 15.8609 87.0914 15.8609C87.0914 15.882 87.0703 15.9031 87.0703 15.9242C87.007 15.9875 86.9859 16.093 86.9859 16.1774V21.8056C86.9648 23.5832 85.5459 24.9995 83.7709 24.9995C81.9959 24.9995 80.5955 23.5806 80.5955 21.8056V16.1774C80.5955 15.9031 80.3634 15.6895 80.068 15.6895C79.8122 15.6895 79.5801 15.9031 79.5801 16.1774V21.8056C79.5801 24.1318 81.4632 26.0149 83.7683 26.036C85.058 26.036 86.2026 25.4452 86.9833 24.5564V25.2342C86.9622 27.3705 85.2268 29.0848 83.0694 29.0848C82.4759 29.0848 81.8852 28.9371 81.3761 28.6813C81.3735 28.6813 81.3682 28.6813 81.3656 28.6813L80.8803 28.4756L80.4794 29.4277L81.1599 29.7152L81.1652 29.7046C81.7586 29.9446 82.3968 30.0976 83.072 30.0976C85.8017 30.0976 88.0013 27.9402 88.0013 25.2316V16.1774C88.0013 16.1141 87.9802 16.0297 87.938 15.9664" fill="#1856A7"/>
</g>
<path d="M10.7409 14.3896L9.38281 13.6055L4.69001 21.7336L6.04811 22.5177L10.7409 14.3896Z" fill="#07A7AD"/>
<path d="M16.4772 30.2109C14.6815 33.2318 10.7754 34.2605 7.72402 32.4988C4.6726 30.737 3.61047 26.8399 5.3288 23.7743L3.9707 22.9902C1.82057 26.8037 3.14058 31.6636 6.93982 33.8571C10.739 36.0505 15.6078 34.7638 17.8353 30.995L16.4772 30.2109Z" fill="#1856A7"/>
<path d="M25.4419 14.6832L25.7446 14.1588C27.519 11.0855 26.4645 7.13546 23.3873 5.35883C20.3101 3.5822 16.3645 4.63971 14.5876 7.71733L9.21237 17.0275L7.85427 16.2434L13.2295 6.93323C15.4382 3.1077 20.344 1.79648 24.1647 4.00237C27.9855 6.20827 29.3003 11.1167 27.0941 14.938L26.7914 15.4624L25.4333 14.6783L25.4419 14.6832Z" fill="#07A7AD"/>
<path d="M25.44 14.6883L25.4301 14.7054C23.6557 17.7788 19.7076 18.8406 16.6304 17.0639C14.821 16.0193 13.7106 14.2205 13.4639 12.2957L12.3372 14.2471C12.9599 15.9477 14.1571 17.4471 15.8462 18.4222C19.6712 20.6306 24.5752 19.3126 26.7814 15.4914L26.7913 15.4742L25.4332 14.6901L25.44 14.6883Z" fill="#1856A7"/>
<path d="M14.1944 6.38391L13.4102 7.74219L24.305 14.0323L25.0892 12.6741L14.1944 6.38391Z" fill="#07A7AD"/>
<path d="M18.5509 29.7566L26.8073 15.456L26.6483 15.3642L25.4492 14.6719L17.1928 28.9725L18.5509 29.7566Z" fill="#1856A7"/>
<defs>
<clipPath id="clip0_909_3456">
<rect width="56" height="18.6702" fill="white" transform="translate(32 11.4297)"/>
</clipPath>
</defs>
</svg>
