<svg width="258" height="29" viewBox="0 0 258 29" fill="none" xmlns="http://www.w3.org/2000/svg">
<g clip-path="url(#clip0_891_3361)">
<path d="M15.3912 9.91797H12.8259C11.692 9.91797 10.6046 10.3684 9.8028 11.1702C9.00101 11.972 8.55057 13.0594 8.55057 14.1933V16.7586H5.98535V20.1788H8.55057V27.0194H11.9709V20.1788H14.5361L15.3912 16.7586H11.9709V14.1933C11.9709 13.9666 12.061 13.7491 12.2213 13.5887C12.3817 13.4283 12.5992 13.3383 12.8259 13.3383H15.3912V9.91797Z" stroke="white" stroke-width="1.71015" stroke-linecap="round" stroke-linejoin="round"/>
</g>
<path d="M55.7509 11.6278C55.7509 11.6278 55.1523 13.4234 54.0407 14.535C55.4088 23.0858 46.003 29.3278 38.6494 24.4539C40.5306 24.5394 42.4117 23.9408 43.7799 22.7437C39.5045 21.4611 37.3668 16.4162 39.5045 12.4829C41.3856 14.7061 44.2929 15.9887 47.2001 15.9032C46.4306 12.3119 50.6204 10.2597 53.1857 12.6539C54.1262 12.6539 55.7509 11.6278 55.7509 11.6278Z" stroke="white" stroke-width="1.71015" stroke-linecap="round" stroke-linejoin="round"/>
<g clip-path="url(#clip1_891_3361)">
<path d="M88.414 9.91797H79.8633C77.502 9.91797 75.5879 11.8321 75.5879 14.1933V22.7441C75.5879 25.1053 77.502 27.0194 79.8633 27.0194H88.414C90.7752 27.0194 92.6894 25.1053 92.6894 22.7441V14.1933C92.6894 11.8321 90.7752 9.91797 88.414 9.91797Z" stroke="white" stroke-width="1.71015" stroke-linecap="round" stroke-linejoin="round"/>
<path d="M87.5595 17.9303C87.665 18.6419 87.5434 19.3687 87.2121 20.0073C86.8807 20.6459 86.3565 21.1637 85.7139 21.4871C85.0713 21.8106 84.343 21.9232 83.6328 21.8089C82.9225 21.6946 82.2663 21.3592 81.7576 20.8505C81.2489 20.3418 80.9136 19.6857 80.7993 18.9754C80.685 18.2651 80.7976 17.5369 81.121 16.8943C81.4445 16.2517 81.9623 15.7274 82.6009 15.3961C83.2394 15.0647 83.9662 14.9432 84.6779 15.0487C85.4037 15.1564 86.0758 15.4946 86.5947 16.0135C87.1136 16.5324 87.4518 17.2044 87.5595 17.9303Z" stroke="white" stroke-width="1.71015" stroke-linecap="round" stroke-linejoin="round"/>
<path d="M88.8418 13.7656H88.8501" stroke="white" stroke-width="1.71015" stroke-linecap="round" stroke-linejoin="round"/>
</g>
<g clip-path="url(#clip2_891_3361)">
<path d="M124.499 15.0488C125.859 15.0488 127.164 15.5894 128.126 16.5515C129.089 17.5136 129.629 18.8186 129.629 20.1793V26.1648H126.209V20.1793C126.209 19.7257 126.029 19.2907 125.708 18.97C125.387 18.6493 124.952 18.4691 124.499 18.4691C124.045 18.4691 123.61 18.6493 123.289 18.97C122.969 19.2907 122.788 19.7257 122.788 20.1793V26.1648H119.368V20.1793C119.368 18.8186 119.909 17.5136 120.871 16.5515C121.833 15.5894 123.138 15.0488 124.499 15.0488Z" stroke="white" stroke-width="1.71015" stroke-linecap="round" stroke-linejoin="round"/>
<path d="M115.948 15.9043H112.527V26.1652H115.948V15.9043Z" stroke="white" stroke-width="1.71015" stroke-linecap="round" stroke-linejoin="round"/>
<path d="M114.237 13.3383C115.182 13.3383 115.948 12.5726 115.948 11.6281C115.948 10.6836 115.182 9.91797 114.237 9.91797C113.293 9.91797 112.527 10.6836 112.527 11.6281C112.527 12.5726 113.293 13.3383 114.237 13.3383Z" stroke="white" stroke-width="1.71015" stroke-linecap="round" stroke-linejoin="round"/>
</g>
<defs>
<clipPath id="clip0_891_3361">
<rect width="20.5218" height="20.5218" fill="white" transform="translate(0 8.20898)"/>
</clipPath>
<clipPath id="clip1_891_3361">
<rect width="20.5218" height="20.5218" fill="white" transform="translate(73.8779 8.20898)"/>
</clipPath>
<clipPath id="clip2_891_3361">
<rect width="20.5218" height="20.5218" fill="white" transform="translate(110.817 8.20898)"/>
</clipPath>
</defs>
</svg>
