<svg width="71" height="56" viewBox="0 0 71 56" fill="none" xmlns="http://www.w3.org/2000/svg">
<rect width="70.6239" height="55.5427" rx="9.71998" fill="white"/>
<path d="M33.4805 37.293C33.6662 37.6146 33.9333 37.8817 34.2549 38.0674C34.5766 38.2531 34.9414 38.3508 35.3129 38.3508C35.6843 38.3508 36.0491 38.2531 36.3708 38.0674C36.6924 37.8817 36.9595 37.6146 37.1452 37.293" stroke="#0B6E71" stroke-width="2.11591" stroke-linecap="round" stroke-linejoin="round"/>
<path d="M26.0674 31.2897C25.9292 31.4412 25.838 31.6296 25.8049 31.832C25.7718 32.0343 25.7982 32.242 25.8809 32.4296C25.9636 32.6172 26.0991 32.7768 26.2708 32.8888C26.4426 33.0009 26.6431 33.0606 26.8482 33.0608H43.7755C43.9805 33.0608 44.1812 33.0013 44.353 32.8895C44.5248 32.7776 44.6605 32.6183 44.7434 32.4308C44.8264 32.2433 44.853 32.0357 44.8202 31.8333C44.7873 31.6309 44.6964 31.4424 44.5584 31.2908C43.1513 29.8403 41.6596 28.2989 41.6596 23.5391C41.6596 21.8556 40.9908 20.241 39.8004 19.0506C38.61 17.8602 36.9954 17.1914 35.3119 17.1914C33.6283 17.1914 32.0138 17.8602 30.8233 19.0506C29.6329 20.241 28.9641 21.8556 28.9641 23.5391C28.9641 28.2989 27.4713 29.8403 26.0674 31.2897Z" stroke="#0B6E71" stroke-width="2.11591" stroke-linecap="round" stroke-linejoin="round"/>
</svg>
