<svg width="80" height="80" viewBox="0 0 80 80" fill="none" xmlns="http://www.w3.org/2000/svg">
<path d="M59.5499 34.316C58.8552 31.6149 57.5939 29.0924 55.8498 26.916C54.1208 24.7243 51.952 22.919 49.4832 21.616C47.0205 20.3233 44.3221 19.541 41.5499 19.316C38.7697 19.1071 35.9766 19.4818 33.3499 20.416C30.7085 21.337 28.2898 22.8019 26.2499 24.716C24.2319 26.5977 22.6111 28.8645 21.4832 31.3826C20.3808 33.9395 19.8245 36.6984 19.8499 39.4826C19.7726 42.6985 20.4607 45.8867 21.8574 48.7844C23.2541 51.6821 25.3194 54.2064 27.8832 56.1493L29.0499 57.2493C30.0499 58.2826 30.0499 58.2826 30.0165 60.5826V61.6493C29.9764 62.3868 30.0899 63.1246 30.3499 63.816C30.5832 64.556 30.9965 65.2327 31.5499 65.7826C31.8032 66.0426 32.081 66.276 32.3832 66.4826V69.816C32.3283 70.4205 32.3936 71.0299 32.5754 71.6091C32.7571 72.1882 33.0517 72.7257 33.4421 73.1905C33.8325 73.6553 34.3111 74.0382 34.8502 74.3172C35.3893 74.5962 35.9783 74.7657 36.5832 74.816H43.2499C44.4742 74.7141 45.6079 74.1302 46.4018 73.1925C47.1957 72.2549 47.5846 71.0403 47.4832 69.816V66.4826C47.7841 66.2783 48.0633 66.0438 48.3165 65.7826C48.8399 65.2293 49.2399 64.5693 49.4832 63.8493C49.7386 63.1452 49.8519 62.3975 49.8165 61.6493V60.416C49.8165 58.5826 49.8165 58.5826 50.8499 57.416L52.1165 56.2493C56.3901 52.9256 59.1808 48.0508 59.8832 42.6826C60.3739 39.9022 60.2603 37.0486 59.5499 34.316ZM42.6499 69.7493H37.3832V67.6493H42.6499V69.7493ZM40.0165 34.5493C38.9291 34.5493 37.8863 34.9813 37.1174 35.7502C36.3485 36.5191 35.9165 37.5619 35.9165 38.6493C35.9165 39.5334 35.5653 40.3812 34.9402 41.0063C34.3151 41.6315 33.4672 41.9826 32.5832 41.9826C31.6991 41.9826 30.8513 41.6315 30.2262 41.0063C29.601 40.3812 29.2499 39.5334 29.2499 38.6493C29.241 37.2329 29.5134 35.8289 30.0514 34.5186C30.5893 33.2084 31.3821 32.0179 32.3836 31.0164C33.3851 30.0148 34.5756 29.2221 35.8858 28.6842C37.1961 28.1462 38.6001 27.8738 40.0165 27.8826C40.9006 27.8826 41.7484 28.2338 42.3735 28.859C42.9987 29.4841 43.3499 30.3319 43.3499 31.216C43.3499 32.1 42.9987 32.9479 42.3735 33.573C41.7484 34.1981 40.9006 34.5493 40.0165 34.5493Z" fill="white"/>
</svg>
