<svg width="23" height="23" viewBox="0 0 23 23" fill="none" xmlns="http://www.w3.org/2000/svg">
<path d="M16.155 13.5C16.245 12.7575 16.3125 12.015 16.3125 11.25C16.3125 10.485 16.245 9.7425 16.155 9H19.9575C20.1375 9.72 20.25 10.4738 20.25 11.25C20.25 12.0263 20.1375 12.78 19.9575 13.5M14.1638 19.755C14.8388 18.5063 15.3563 17.1563 15.7163 15.75H19.035C17.9451 17.6268 16.2159 19.0485 14.1638 19.755ZM13.8825 13.5H8.6175C8.505 12.7575 8.4375 12.015 8.4375 11.25C8.4375 10.485 8.505 9.73125 8.6175 9H13.8825C13.9838 9.73125 14.0625 10.485 14.0625 11.25C14.0625 12.015 13.9838 12.7575 13.8825 13.5ZM11.25 20.205C10.3163 18.855 9.5625 17.3588 9.10125 15.75H13.3988C12.9375 17.3588 12.1838 18.855 11.25 20.205ZM6.75 6.75H3.465C4.54347 4.86791 6.27149 3.4439 8.325 2.745C7.65 3.99375 7.14375 5.34375 6.75 6.75ZM3.465 15.75H6.75C7.14375 17.1563 7.65 18.5063 8.325 19.755C6.27555 19.0488 4.54983 17.6267 3.465 15.75ZM2.5425 13.5C2.3625 12.78 2.25 12.0263 2.25 11.25C2.25 10.4738 2.3625 9.72 2.5425 9H6.345C6.255 9.7425 6.1875 10.485 6.1875 11.25C6.1875 12.015 6.255 12.7575 6.345 13.5M11.25 2.28375C12.1838 3.63375 12.9375 5.14125 13.3988 6.75H9.10125C9.5625 5.14125 10.3163 3.63375 11.25 2.28375ZM19.035 6.75H15.7163C15.3636 5.35681 14.8423 4.01187 14.1638 2.745C16.2338 3.45375 17.955 4.8825 19.035 6.75ZM11.25 0C5.02875 0 0 5.0625 0 11.25C0 14.2337 1.18526 17.0952 3.29505 19.205C4.33971 20.2496 5.5799 21.0783 6.94481 21.6436C8.30972 22.209 9.77263 22.5 11.25 22.5C14.2337 22.5 17.0952 21.3147 19.205 19.205C21.3147 17.0952 22.5 14.2337 22.5 11.25C22.5 9.77263 22.209 8.30972 21.6436 6.94481C21.0783 5.5799 20.2496 4.33971 19.205 3.29505C18.1603 2.25039 16.9201 1.42172 15.5552 0.856355C14.1903 0.29099 12.7274 0 11.25 0Z" fill="#00A4AA"/>
</svg>
