<svg width="53" height="53" viewBox="0 0 53 53" fill="none" xmlns="http://www.w3.org/2000/svg">
<mask id="path-1-inside-1_1081_3678" fill="white">
<path d="M0 10.5768C0 4.7354 4.7354 0 10.5768 0L42.4232 0C48.2646 0 53 4.7354 53 10.5768V42.4232C53 48.2646 48.2646 53 42.4232 53H10.5768C4.7354 53 0 48.2646 0 42.4232L0 10.5768Z"/>
</mask>
<path d="M0 10.5768C0 4.7354 4.7354 0 10.5768 0L42.4232 0C48.2646 0 53 4.7354 53 10.5768V42.4232C53 48.2646 48.2646 53 42.4232 53H10.5768C4.7354 53 0 48.2646 0 42.4232L0 10.5768Z" fill="#FDC700"/>
<path d="M10.5768 0V1.3221L42.4232 1.3221V0V-1.3221L10.5768 -1.3221V0ZM53 10.5768H51.6779V42.4232H53H54.3221V10.5768H53ZM42.4232 53V51.6779H10.5768V53V54.3221H42.4232V53ZM0 42.4232H1.3221L1.3221 10.5768H0H-1.3221L-1.3221 42.4232H0ZM10.5768 53V51.6779C5.46558 51.6779 1.3221 47.5344 1.3221 42.4232H0H-1.3221C-1.3221 48.9948 4.00522 54.3221 10.5768 54.3221V53ZM53 42.4232H51.6779C51.6779 47.5344 47.5344 51.6779 42.4232 51.6779V53V54.3221C48.9948 54.3221 54.3221 48.9948 54.3221 42.4232H53ZM42.4232 0V1.3221C47.5344 1.3221 51.6779 5.46558 51.6779 10.5768H53H54.3221C54.3221 4.00523 48.9948 -1.3221 42.4232 -1.3221V0ZM10.5768 0V-1.3221C4.00522 -1.3221 -1.3221 4.00523 -1.3221 10.5768H0H1.3221C1.3221 5.46558 5.46558 1.3221 10.5768 1.3221V0Z" fill="white" fill-opacity="0.66" mask="url(#path-1-inside-1_1081_3678)"/>
<g clip-path="url(#clip0_1081_3678)">
<path d="M18.5692 28.4835C18.3815 28.4842 18.1976 28.4316 18.0386 28.3318C17.8797 28.232 17.7523 28.0892 17.6714 27.92C17.5904 27.7507 17.5591 27.5619 17.5811 27.3756C17.6031 27.1893 17.6775 27.013 17.7957 26.8673L27.6124 16.7532C27.686 16.6682 27.7863 16.6107 27.8969 16.5903C28.0075 16.5698 28.1217 16.5876 28.2209 16.6406C28.3201 16.6937 28.3983 16.7789 28.4426 16.8822C28.487 16.9855 28.4949 17.1009 28.4651 17.2093L26.5613 23.1786C26.5051 23.3288 26.4863 23.4905 26.5063 23.6496C26.5264 23.8087 26.5847 23.9606 26.6764 24.0923C26.768 24.2239 26.8903 24.3313 27.0326 24.4053C27.1748 24.4794 27.333 24.5177 27.4934 24.5172H34.4344C34.622 24.5166 34.806 24.5692 34.9649 24.669C35.1239 24.7687 35.2512 24.9115 35.3322 25.0808C35.4132 25.25 35.4445 25.4388 35.4225 25.6252C35.4005 25.8115 35.326 25.9878 35.2078 26.1335L25.3912 36.2476C25.3176 36.3326 25.2172 36.39 25.1067 36.4105C24.9961 36.4309 24.8818 36.4132 24.7827 36.3601C24.6835 36.3071 24.6053 36.2219 24.5609 36.1186C24.5166 36.0152 24.5086 35.8999 24.5385 35.7914L26.4423 29.8222C26.4984 29.6719 26.5173 29.5103 26.4972 29.3512C26.4772 29.192 26.4188 29.0401 26.3272 28.9085C26.2355 28.7769 26.1133 28.6694 25.971 28.5954C25.8287 28.5214 25.6706 28.483 25.5102 28.4835H18.5692Z" stroke="white" stroke-width="2.47894" stroke-linecap="round" stroke-linejoin="round"/>
</g>
<defs>
<clipPath id="clip0_1081_3678">
<rect width="23.7978" height="23.7978" fill="white" transform="translate(14.6016 14.6016)"/>
</clipPath>
</defs>
</svg>
